<svg width="44" height="60" viewBox="0 0 44 60" fill="none" xmlns="http://www.w3.org/2000/svg">
<path d="M43.3973 41.1834C43.3973 53.909 35.0359 59.6853 23.9891 59.6853C19.2576 59.6853 15.0769 58.2659 12.4702 55.6537C9.6273 58.1082 4.73837 59.843 4.73837 58.5813V9.32491C4.73837 6.63389 3.95142 5.45103 0.715088 4.26817V2.92759L14.5261 0V28.4577C17.0541 23.7164 22.8874 21.7351 26.6746 21.7351C35.5081 21.7351 43.3973 28.6943 43.3973 41.1834ZM32.1144 41.8142C32.1144 29.1674 29.1928 25.057 22.73 25.057C17.3689 25.057 14.5261 29.4829 14.5261 35.1015V45.146C14.5261 55.1116 19.415 58.3447 23.9104 58.3447C29.665 58.3447 32.1144 53.9189 32.1144 41.8241V41.8142Z" fill="#921A64"/>
</svg>
