<svg width="76" height="57" viewBox="0 0 76 57" fill="none" xmlns="http://www.w3.org/2000/svg">
<path d="M24.0261 54.6354V55.976H0.122559V54.6354C11.9563 54.6354 11.9563 35.9757 11.9563 35.9757H13.2941C13.2941 35.9757 13.1367 54.6354 24.0261 54.6354ZM22.9244 0.322266L42.6474 41.9098L36.7255 56.6956H35.3877L11.9563 7.12373C8.95607 1.83042 5.01148 1.83042 3.04411 1.6727V0.332123H22.9244V0.322266ZM75.8566 54.6354V55.976H52.0317V54.6354C55.3467 54.6354 57.7076 51.7867 57.7076 46.4145V0.322266H75.1385V1.66284C71.7448 1.66284 69.0593 3.80186 69.0593 8.62203V46.4047C69.0593 51.7768 72.4531 54.6256 75.8468 54.6256L75.8566 54.6354Z" fill="#921A64"/>
</svg>
