<svg width="33" height="38" viewBox="0 0 33 38" fill="none" xmlns="http://www.w3.org/2000/svg">
<path d="M30.524 2.16455C32.9734 4.30357 33.2095 8.09859 31.0749 10.4643C28.9403 12.9188 25.3203 13.2342 22.7923 11.0952C21.6118 9.99117 20.9823 8.64073 20.9823 7.2213C20.9823 6.35386 17.746 7.14244 14.8244 11.8838V28.3256C14.8244 32.7514 15.2179 35.8367 18.0607 36.6253V37.9659H1.73153V36.6253C4.81047 35.679 4.88917 32.436 4.88917 28.3256V10.7797C4.88917 8.08873 4.18091 6.90587 0.94458 5.24986V3.90928L14.8342 0.745117V9.67574C19.0149 3.11085 22.2512 1.92798 24.1399 1.1394C25.7925 0.429686 28.7928 0.745118 30.5339 2.16455H30.524Z" fill="#921A64"/>
</svg>
