<svg width="29" height="39" viewBox="0 0 29 39" fill="none" xmlns="http://www.w3.org/2000/svg">
<path d="M26.6015 34.4173C26.6015 34.4173 23.6013 38.6855 15.5547 38.6855C6.01297 38.6855 1.27159 35.0482 1.27159 35.0482V25.0924H2.60942C3.78984 28.1777 6.31791 37.3449 15.5449 37.3449C21.1421 37.3449 22.0962 30.228 16.0957 26.2753L8.12788 21.4551C0.474802 16.7926 -1.57125 10.3855 2.76681 4.69785C2.76681 4.69785 5.76703 0.745117 13.6562 0.745117C22.7258 0.745117 26.6704 3.1207 26.6704 3.1207V11.9725H25.3325C24.3095 9.20259 21.7814 2.0857 13.6562 2.0857C8.53119 2.0857 6.31791 8.17744 13.184 12.5245L21.1519 17.5024C28.1754 21.8494 30.5363 28.7297 26.5917 34.4173H26.6015Z" fill="#921A64"/>
</svg>
