<svg width="42" height="56" viewBox="0 0 42 56" fill="none" xmlns="http://www.w3.org/2000/svg">
<path d="M41.4704 0.454285V1.79486C39.8178 1.79486 36.188 1.95258 31.1319 14.1262L19.0621 45.9847C17.016 51.3568 14.6453 53.5747 13.1403 54.7576C11.7238 55.9404 8.9596 56.4136 7.06109 55.5462C4.29693 54.2844 3.11651 51.0414 4.29693 48.2715C5.55605 45.5017 8.79237 44.24 11.5565 45.5017C12.973 46.1325 13.8485 47.4041 14.242 48.7447C14.5568 49.691 16.4553 49.139 17.7144 45.8171L20.7147 37.6751C15.8257 26.3689 5.80197 4.87031 5.80197 4.87031C4.54285 1.78501 2.01477 1.78501 0.834351 1.78501V0.444428H19.4555V1.78501C15.3536 1.78501 17.4095 6.60518 17.4095 6.60518L25.7708 24.4664L29.9515 13.7911C29.9515 13.7911 35.1552 1.69629 26.0069 1.77515V0.43457H41.4704V0.454285Z" fill="#921A64"/>
</svg>
