<svg width="71" height="70" viewBox="0 0 71 70" fill="none" xmlns="http://www.w3.org/2000/svg">
<path fill-rule="evenodd" clip-rule="evenodd" d="M13.4745 8.02546C12.8144 7.38791 11.9302 7.03513 11.0126 7.0431C10.0949 7.05108 9.21702 7.41917 8.5681 8.0681C7.91917 8.71702 7.55108 9.59487 7.5431 10.5126C7.53513 11.4302 7.88791 12.3144 8.52546 12.9745L57.5255 61.9745C58.1856 62.612 59.0697 62.9648 59.9874 62.9568C60.9051 62.9488 61.7829 62.5808 62.4318 61.9318C63.0808 61.2829 63.4488 60.4051 63.4568 59.4874C63.4648 58.5697 63.112 57.6856 62.4745 57.0255L57.319 51.87C62.7703 47.5234 66.8015 41.6497 68.897 35C64.438 20.8005 51.173 10.5 35.5 10.5C30.0135 10.4925 24.6027 11.7805 19.708 14.259L13.478 8.02546H13.4745ZM28.388 22.9355L33.687 28.238C34.8738 27.9228 36.1226 27.9249 37.3083 28.244C38.4941 28.5632 39.5752 29.1881 40.4435 30.0564C41.3118 30.9247 41.9368 32.0059 42.2559 33.1916C42.575 34.3774 42.5771 35.6261 42.262 36.813L47.561 42.112C49.1394 39.438 49.7841 36.3152 49.3937 33.2348C49.0033 30.1544 47.5999 27.2912 45.4043 25.0956C43.2087 22.9 40.3455 21.4966 37.2651 21.1062C34.1847 20.7158 31.0619 21.3605 28.388 22.939V22.9355Z" fill="white"/>
<path d="M44.089 58.4394L34.625 48.9719C31.2219 48.7587 28.0136 47.3109 25.6022 44.9002C23.1908 42.4894 21.7421 39.2815 21.528 35.8784L8.67253 23.0229C5.71577 26.544 3.48325 30.6142 2.10303 34.9999C6.56203 49.1994 19.8305 59.4999 35.5 59.4999C38.4645 59.4999 41.3415 59.1325 44.089 58.4394Z" fill="#F9FAFB"/>
</svg>
