<svg width="249" height="46" viewBox="0 0 249 46" fill="none" xmlns="http://www.w3.org/2000/svg">
<path d="M28.7878 29.68C30.4198 33.52 31.5718 33.088 32.8198 33.184V34H19.0918V33.184C22.8358 33.184 20.3398 28.048 20.3398 28.048L18.8998 24.544H7.52381C7.52381 24.544 4.54781 33.568 12.1318 33.184V34H0.323813V33.184C1.57181 33.088 2.77181 33.472 7.47581 22.096L15.7798 0.207997H16.5958C28.3558 28.432 28.7878 29.68 28.7878 29.68ZM7.66781 23.728H18.6118L12.8998 9.712L7.66781 23.728ZM56.3402 28.144C56.3402 30.784 56.5802 32.752 58.3082 33.184V34H48.4202V33.184C50.2442 32.656 50.3402 30.592 50.3402 28.144V18.832C50.3402 16.528 48.8522 14.848 46.4522 14.848C44.5802 14.848 42.3722 16.864 42.3722 18.784V28.24C42.3722 30.88 42.6602 32.704 44.3402 33.184V34H34.5002V33.184C36.3242 32.656 36.3722 30.688 36.3722 28.24V17.392C36.3722 15.712 35.9402 15.184 33.9722 14.128V13.312L42.3722 11.392V16.528C43.4762 13.6 47.2682 11.392 50.2922 11.392C54.0362 11.392 56.3402 12.88 56.3402 18.688V28.144ZM72.7592 11.392C80.1032 11.392 84.1832 16.576 84.1832 22.912C84.1832 29.2 80.1032 34.432 72.7592 34.432C65.4632 34.432 61.3352 29.2 61.3352 22.912C61.3352 16.576 65.4632 11.392 72.7592 11.392ZM72.7592 33.616C76.2152 33.616 77.0792 31.6 77.0792 22.912C77.0792 14.224 76.2152 12.208 72.7592 12.208C69.3032 12.208 68.3912 14.224 68.3912 22.912C68.3912 31.6 69.3032 33.616 72.7592 33.616ZM108.887 28.144C108.887 30.784 109.127 32.752 110.855 33.184V34H100.967V33.184C102.791 32.656 102.887 30.592 102.887 28.144V18.832C102.887 16.528 101.399 14.848 98.9991 14.848C97.1271 14.848 94.9191 16.864 94.9191 18.784V28.24C94.9191 30.88 95.2071 32.704 96.8871 33.184V34H87.0471V33.184C88.8711 32.656 88.9191 30.688 88.9191 28.24V17.392C88.9191 15.712 88.4871 15.184 86.5191 14.128V13.312L94.9191 11.392V16.528C96.0231 13.6 99.8151 11.392 102.839 11.392C106.583 11.392 108.887 12.88 108.887 18.688V28.144ZM126.301 11.824H135.709V12.64C134.701 12.64 132.493 12.736 129.421 20.128L122.077 39.472C120.829 42.736 119.389 44.08 118.477 44.8C117.613 45.52 115.933 45.808 114.781 45.28C113.101 44.512 112.381 42.544 113.101 40.864C113.869 39.184 115.837 38.416 117.517 39.184C118.381 39.568 118.909 40.336 119.149 41.152C119.341 41.728 120.493 41.392 121.261 39.376L123.085 34.432C120.109 27.568 114.013 14.512 114.013 14.512C113.245 12.64 111.709 12.64 110.989 12.64V11.824H122.317V12.64C119.821 12.64 121.069 15.568 121.069 15.568L126.157 26.416L128.701 19.936C128.701 19.936 131.869 12.592 126.301 12.64V11.824ZM173.87 33.184V34H163.982V33.184C165.806 32.656 165.902 30.592 165.902 28.144V18.832C165.902 16.144 164.558 14.848 162.398 14.848C160.622 14.848 158.606 17.008 158.606 18.928V28.144C158.606 30.784 158.846 32.752 160.574 33.184V34H150.686V33.184C152.51 32.656 152.606 30.592 152.606 28.144V18.832C152.606 16.144 151.31 14.848 149.15 14.848C147.374 14.848 145.31 17.056 145.31 18.784V28.24C145.31 30.88 145.598 32.704 147.278 33.184V34H137.438V33.184C139.262 32.656 139.31 30.688 139.31 28.24V17.728C139.31 16.048 138.878 15.184 136.91 14.128V13.312L145.31 11.392V16.336C146.606 13.552 149.534 11.392 152.558 11.392C155.918 11.392 157.982 12.928 158.558 16.48C159.566 13.552 162.83 11.392 165.854 11.392C169.598 11.392 171.902 12.88 171.902 18.688V28.144C171.902 30.784 172.142 32.752 173.87 33.184ZM187.978 11.392C195.322 11.392 199.402 16.576 199.402 22.912C199.402 29.2 195.322 34.432 187.978 34.432C180.682 34.432 176.554 29.2 176.554 22.912C176.554 16.576 180.682 11.392 187.978 11.392ZM187.978 33.616C191.434 33.616 192.298 31.6 192.298 22.912C192.298 14.224 191.434 12.208 187.978 12.208C184.522 12.208 183.61 14.224 183.61 22.912C183.61 31.6 184.522 33.616 187.978 33.616ZM224.922 29.584C224.922 31.888 225.354 32.08 227.37 32.32V33.136L220.266 34.384C218.97 34.576 218.922 33.472 218.922 33.472V29.248C217.77 31.984 213.786 34.432 210.81 34.432C207.018 34.432 204.762 32.848 204.762 27.088V16.816C204.762 13.936 204.858 13.504 202.074 13.12V12.304L210.714 11.392V26.944C210.714 29.632 211.962 30.928 214.746 30.928C216.09 30.928 217.914 29.728 218.922 27.808V16.96C218.922 14.032 219.114 13.408 216.666 13.12V12.304L224.922 11.392V29.584ZM242.708 21.568C246.98 24.208 248.42 28.384 246.02 31.84C246.02 31.84 244.196 34.432 239.3 34.432C233.492 34.432 230.612 32.224 230.612 32.224V26.176H231.428C232.148 28.048 233.684 33.616 239.3 33.616C242.708 33.616 243.284 29.296 239.636 26.896L234.788 23.968C230.132 21.136 228.884 17.248 231.524 13.792C231.524 13.792 233.348 11.392 238.148 11.392C243.668 11.392 246.068 12.832 246.068 12.832V18.208H245.252C244.628 16.528 243.092 12.208 238.148 12.208C235.028 12.208 233.684 15.904 237.86 18.544L242.708 21.568Z" fill="white"/>
</svg>
