<svg width="45" height="42" viewBox="0 0 45 42" fill="none" xmlns="http://www.w3.org/2000/svg">
<path d="M23.1027 41.7149C22.8013 41.905 22.5 42 22.1987 42C21.7969 42 21.596 41.905 21.3951 41.7149L0.401786 21.7602C0.100446 21.5701 0 21.3801 0 21C0 20.7149 0.100446 20.4299 0.401786 20.2398L21.3951 0.285068C21.596 0.0950226 21.7969 0 22.1987 0C22.5 0 22.8013 0.0950226 23.1027 0.285068L25.1116 2.18552C25.3125 2.37557 25.4129 2.66063 25.4129 2.9457C25.4129 3.32579 25.3125 3.61086 25.1116 3.8009L9.54241 18.5294H43.7946C44.096 18.5294 44.3973 18.7195 44.5982 18.9095C44.7991 19.0995 45 19.3846 45 19.6697V22.3303C45 22.7104 44.7991 22.9955 44.5982 23.1855C44.3973 23.3756 44.096 23.4706 43.7946 23.4706H9.54241L25.1116 38.1991C25.3125 38.4842 25.4129 38.7692 25.4129 39.0543C25.4129 39.4344 25.3125 39.6244 25.1116 39.8145L23.1027 41.7149Z" fill="black"/>
</svg>
