<svg width="16" height="15" viewBox="0 0 16 15" fill="none" xmlns="http://www.w3.org/2000/svg">
<path fill-rule="evenodd" clip-rule="evenodd" d="M5.70703 0.459534C5.8945 0.647062 5.99982 0.90137 5.99982 1.16653C5.99982 1.4317 5.8945 1.68601 5.70703 1.87353L3.41403 4.16653H9.00003C10.8565 4.16653 12.637 4.90403 13.9498 6.21679C15.2625 7.52954 16 9.31002 16 11.1665V13.1665C16 13.4318 15.8947 13.6861 15.7071 13.8736C15.5196 14.0612 15.2652 14.1665 15 14.1665C14.7348 14.1665 14.4805 14.0612 14.2929 13.8736C14.1054 13.6861 14 13.4318 14 13.1665V11.1665C14 9.84045 13.4732 8.56868 12.5356 7.631C11.5979 6.69332 10.3261 6.16653 9.00003 6.16653H3.41403L5.70703 8.45953C5.80254 8.55178 5.87872 8.66213 5.93113 8.78413C5.98354 8.90613 6.01113 9.03735 6.01228 9.17013C6.01344 9.30291 5.98813 9.43459 5.93785 9.55749C5.88757 9.68038 5.81332 9.79204 5.71943 9.88593C5.62553 9.97982 5.51388 10.0541 5.39098 10.1044C5.26809 10.1546 5.13641 10.1799 5.00363 10.1788C4.87085 10.1776 4.73963 10.15 4.61763 10.0976C4.49562 10.0452 4.38528 9.96904 4.29303 9.87353L0.293031 5.87353C0.105559 5.68601 0.000244141 5.4317 0.000244141 5.16653C0.000244141 4.90137 0.105559 4.64706 0.293031 4.45953L4.29303 0.459534C4.48056 0.272063 4.73487 0.166748 5.00003 0.166748C5.26519 0.166748 5.5195 0.272063 5.70703 0.459534Z" fill="white"/>
</svg>
