<svg width="237" height="49" viewBox="0 0 237 49" fill="none" xmlns="http://www.w3.org/2000/svg">
<path d="M28.5825 24.92H29.3985L30.0705 32.456C26.5185 34.808 22.7745 35.432 17.6385 35.432C7.3665 35.432 0.9825 27.656 0.9825 18.104C0.9825 8.552 7.3665 0.775997 17.6385 0.775997C22.5825 0.775997 27.0465 1.256 30.0705 3.704L29.3985 11.24H28.5825C25.8945 4.76 23.1105 1.592 17.6385 1.592C12.3105 1.592 9.6225 4.952 9.6225 18.104C9.6225 31.304 12.4545 34.616 17.6385 34.616C23.3985 34.616 27.3345 30.152 28.5825 24.92ZM46.4156 30.056C46.4156 29.96 46.4156 23.576 46.4156 23.576C41.7116 24.632 40.1276 26.888 40.1276 29.336C40.1276 29.336 40.1276 32.504 43.2476 32.504C44.8796 32.504 45.9836 31.208 46.4156 30.056ZM54.7676 32.504C54.7676 32.504 55.7756 32.504 56.0636 31.688L56.8796 32.024C56.4956 33.56 54.2876 35.432 51.2636 35.432C51.2636 35.432 46.9916 35.432 46.4636 31.544C45.7436 33.656 42.9116 35.432 39.5036 35.432C39.5036 35.432 33.9836 35.432 33.9836 30.536C33.9836 25.304 38.0156 24.824 46.4156 22.712V19.736C46.4156 14.744 43.6316 12.248 40.3196 13.976C38.7836 14.744 38.5916 15.56 38.9276 15.608C39.6476 15.704 40.2716 16.04 40.7036 16.664C41.5676 17.912 41.2316 19.592 39.9836 20.456C38.7356 21.272 37.0556 20.984 36.1916 19.736C35.6156 18.824 35.5676 17.672 36.0476 16.856C36.5276 16.04 37.1516 14.744 39.7916 13.352C41.9516 12.2 44.4476 12.392 44.4476 12.392C50.7356 12.392 52.4636 16.328 52.4636 21.992V29.144C52.4636 29.144 52.4156 32.504 54.7676 32.504ZM94.7681 34.184V35H84.8801V34.184C86.7041 33.656 86.8001 31.592 86.8001 29.144V19.832C86.8001 17.144 85.4561 15.848 83.2961 15.848C81.5201 15.848 79.5041 18.008 79.5041 19.928V29.144C79.5041 31.784 79.7441 33.752 81.4721 34.184V35H71.5841V34.184C73.4081 33.656 73.5041 31.592 73.5041 29.144V19.832C73.5041 17.144 72.2081 15.848 70.0481 15.848C68.2721 15.848 66.2081 18.056 66.2081 19.784V29.24C66.2081 31.88 66.4961 33.704 68.1761 34.184V35H58.3361V34.184C60.1601 33.656 60.2081 31.688 60.2081 29.24V18.728C60.2081 17.048 59.7761 16.184 57.8081 15.128V14.312L66.2081 12.392V17.336C67.5041 14.552 70.4321 12.392 73.4561 12.392C76.8161 12.392 78.8801 13.928 79.4561 17.48C80.4641 14.552 83.7281 12.392 86.7521 12.392C90.4961 12.392 92.8001 13.88 92.8001 19.688V29.144C92.8001 31.784 93.0401 33.752 94.7681 34.184ZM110.268 34.616C113.772 34.616 115.308 31.832 115.308 24.536C115.308 16.808 113.484 14.168 109.596 14.168C106.716 14.168 104.988 16.472 104.652 19.352V28.136C105.084 33.032 107.82 34.616 110.268 34.616ZM111.948 12.392C117.372 12.392 122.172 16.568 122.172 24.104C122.172 31.832 117.084 35.432 110.364 35.432C108.156 35.432 106.14 34.904 104.652 33.944V42.248C104.652 44.936 104.94 46.472 106.62 46.904V47.72H96.7804V46.904C98.6044 46.376 98.7004 44.696 98.7004 42.248V17.816C98.7004 16.184 98.2204 15.848 96.3004 15.128V14.312L104.652 12.392V16.28C106.188 13.448 109.692 12.392 111.948 12.392ZM138.806 30.056C138.806 29.96 138.806 23.576 138.806 23.576C134.102 24.632 132.518 26.888 132.518 29.336C132.518 29.336 132.518 32.504 135.638 32.504C137.27 32.504 138.374 31.208 138.806 30.056ZM147.158 32.504C147.158 32.504 148.166 32.504 148.454 31.688L149.27 32.024C148.886 33.56 146.678 35.432 143.654 35.432C143.654 35.432 139.382 35.432 138.854 31.544C138.134 33.656 135.302 35.432 131.894 35.432C131.894 35.432 126.374 35.432 126.374 30.536C126.374 25.304 130.406 24.824 138.806 22.712V19.736C138.806 14.744 136.022 12.248 132.71 13.976C131.174 14.744 130.982 15.56 131.318 15.608C132.038 15.704 132.662 16.04 133.094 16.664C133.958 17.912 133.622 19.592 132.374 20.456C131.126 21.272 129.446 20.984 128.582 19.736C128.006 18.824 127.958 17.672 128.438 16.856C128.918 16.04 129.542 14.744 132.182 13.352C134.342 12.2 136.838 12.392 136.838 12.392C143.126 12.392 144.854 16.328 144.854 21.992V29.144C144.854 29.144 144.806 32.504 147.158 32.504ZM159.319 5.288C159.319 7.112 157.831 8.552 156.007 8.552C154.183 8.552 152.743 7.112 152.743 5.288C152.743 3.464 154.183 2.024 156.007 2.024C157.831 2.024 159.319 3.464 159.319 5.288ZM159.463 29.144C159.463 31.832 159.703 33.704 161.431 34.184V35H151.591V34.184C153.415 33.608 153.511 31.592 153.511 29.144V18.488C153.511 16.856 153.031 16.184 151.063 15.128V14.312L159.463 12.392V29.144ZM189.906 12.536C190.914 13.64 190.818 15.368 189.666 16.376C188.562 17.384 186.834 17.24 185.826 16.136C185.346 15.56 185.154 14.888 185.25 14.216C185.298 13.832 184.146 14.072 183.33 15.08C184.482 16.28 185.058 17.864 185.058 19.592C185.058 23.48 181.698 26.792 175.794 26.792C173.922 26.792 172.53 26.552 171.378 26.072C170.082 26.648 167.154 30.584 172.242 30.584H178.962C182.274 30.584 187.842 30.968 186.93 38.216C186.93 38.216 186.69 42.248 181.65 45.08C174.93 48.824 166.194 48.392 164.322 44.456C162.642 40.952 165.57 37.112 168.402 35.864C167.106 35.24 165.906 33.992 165.906 31.832C165.906 31.832 165.858 27.464 170.514 25.688C168.114 24.632 166.578 22.136 166.578 19.592C166.578 15.704 169.938 12.392 175.794 12.392C178.962 12.392 181.17 13.208 182.706 14.504C184.098 12.488 186.114 11.864 187.218 11.672C188.13 11.48 189.234 11.768 189.906 12.536ZM173.538 37.016C173.01 37.016 171.138 37.112 169.266 36.344C164.85 38.84 168.258 42.68 168.258 42.68C170.898 45.848 176.706 47 181.218 44.36C184.386 42.44 184.002 39.56 184.002 39.56C184.002 39.56 183.57 37.016 180.066 37.016H173.538ZM175.794 25.976C178.002 25.976 179.442 24.968 179.442 19.592C179.442 14.216 177.858 13.208 175.794 13.208C173.394 13.208 172.194 14.216 172.194 19.592C172.194 24.968 173.682 25.976 175.794 25.976ZM213.582 29.144C213.582 31.784 213.822 33.752 215.55 34.184V35H205.662V34.184C207.486 33.656 207.582 31.592 207.582 29.144V19.832C207.582 17.528 206.094 15.848 203.694 15.848C201.822 15.848 199.614 17.864 199.614 19.784V29.24C199.614 31.88 199.902 33.704 201.582 34.184V35H191.742V34.184C193.566 33.656 193.614 31.688 193.614 29.24V18.392C193.614 16.712 193.182 16.184 191.214 15.128V14.312L199.614 12.392V17.528C200.718 14.6 204.51 12.392 207.534 12.392C211.278 12.392 213.582 13.88 213.582 19.688V29.144ZM231.153 22.568C235.425 25.208 236.865 29.384 234.465 32.84C234.465 32.84 232.641 35.432 227.745 35.432C221.937 35.432 219.057 33.224 219.057 33.224V27.176H219.873C220.593 29.048 222.129 34.616 227.745 34.616C231.153 34.616 231.729 30.296 228.081 27.896L223.233 24.968C218.577 22.136 217.329 18.248 219.969 14.792C219.969 14.792 221.793 12.392 226.593 12.392C232.113 12.392 234.513 13.832 234.513 13.832V19.208H233.697C233.073 17.528 231.537 13.208 226.593 13.208C223.473 13.208 222.129 16.904 226.305 19.544L231.153 22.568Z" fill="#E06567"/>
</svg>
