<svg width="57" height="53" viewBox="0 0 57 53" fill="none" xmlns="http://www.w3.org/2000/svg">
<path fill-rule="evenodd" clip-rule="evenodd" d="M30.236 0.461969C29.7073 0.159953 29.1089 0.00109863 28.5 0.00109863C27.8911 0.00109863 27.2927 0.159953 26.764 0.461969L2.264 14.462C1.59435 14.8451 1.07003 15.4387 0.772581 16.1505C0.475128 16.8624 0.421203 17.6525 0.619192 18.3982C0.81718 19.1438 1.25599 19.8032 1.86739 20.2737C2.47878 20.7442 3.22851 20.9995 4 21V45.5C3.07174 45.5 2.1815 45.8687 1.52513 46.5251C0.868749 47.1815 0.5 48.0717 0.5 49C0.5 49.9282 0.868749 50.8185 1.52513 51.4748C2.1815 52.1312 3.07174 52.5 4 52.5H53C53.9283 52.5 54.8185 52.1312 55.4749 51.4748C56.1313 50.8185 56.5 49.9282 56.5 49C56.5 48.0717 56.1313 47.1815 55.4749 46.5251C54.8185 45.8687 53.9283 45.5 53 45.5V21C53.7715 20.9995 54.5212 20.7442 55.1326 20.2737C55.744 19.8032 56.1828 19.1438 56.3808 18.3982C56.5788 17.6525 56.5249 16.8624 56.2274 16.1505C55.93 15.4387 55.4057 14.8451 54.736 14.462L30.236 0.461969ZM14.5 24.5C13.5717 24.5 12.6815 24.8687 12.0251 25.5251C11.3687 26.1815 11 27.0717 11 28V38.5C11 39.4282 11.3687 40.3185 12.0251 40.9748C12.6815 41.6312 13.5717 42 14.5 42C15.4283 42 16.3185 41.6312 16.9749 40.9748C17.6313 40.3185 18 39.4282 18 38.5V28C18 27.0717 17.6313 26.1815 16.9749 25.5251C16.3185 24.8687 15.4283 24.5 14.5 24.5ZM25 28C25 27.0717 25.3687 26.1815 26.0251 25.5251C26.6815 24.8687 27.5717 24.5 28.5 24.5C29.4283 24.5 30.3185 24.8687 30.9749 25.5251C31.6313 26.1815 32 27.0717 32 28V38.5C32 39.4282 31.6313 40.3185 30.9749 40.9748C30.3185 41.6312 29.4283 42 28.5 42C27.5717 42 26.6815 41.6312 26.0251 40.9748C25.3687 40.3185 25 39.4282 25 38.5V28ZM42.5 24.5C41.5717 24.5 40.6815 24.8687 40.0251 25.5251C39.3688 26.1815 39 27.0717 39 28V38.5C39 39.4282 39.3688 40.3185 40.0251 40.9748C40.6815 41.6312 41.5717 42 42.5 42C43.4283 42 44.3185 41.6312 44.9749 40.9748C45.6312 40.3185 46 39.4282 46 38.5V28C46 27.0717 45.6312 26.1815 44.9749 25.5251C44.3185 24.8687 43.4283 24.5 42.5 24.5Z" fill="#E06567"/>
</svg>
