<svg width="156" height="146" viewBox="0 0 156 146" fill="none" xmlns="http://www.w3.org/2000/svg">
<path d="M142.574 42.8425L141.793 43.6829H142.94H145.724L145.726 43.683H145.737C151.118 43.683 155.5 48.0719 155.5 53.4652V100.763C155.5 102.758 153.884 104.376 151.895 104.376C149.905 104.376 148.29 102.758 148.29 100.763V53.4681C148.29 52.0585 147.144 50.9112 145.737 50.9112H100.58C99.1706 50.9112 98.0264 52.0573 98.0264 53.4681V58.6573V58.9063L98.2252 59.0563C104.325 63.6607 108.29 70.9519 108.29 79.1717C108.29 85.7905 105.709 91.8052 101.524 96.3097L100.743 97.15H101.89H104.685C110.066 97.15 114.448 101.538 114.448 106.931V141.888C114.448 143.885 112.833 145.501 110.843 145.501C108.854 145.501 107.238 143.884 107.238 141.888L107.237 106.931C107.237 105.522 106.091 104.375 104.684 104.375H59.5267C58.1178 104.375 56.9736 105.523 56.9736 106.931V141.888C56.9736 143.884 55.3579 145.501 53.3685 145.501C51.379 145.501 49.7634 143.884 49.7634 141.888V106.928C49.7634 101.535 54.1456 97.1471 59.5269 97.1471H64.3734H65.5209L64.7396 96.3067C60.5534 91.8035 57.9736 85.7889 57.9736 79.1688C57.9736 77.9598 58.0902 76.7728 58.2587 75.5914L58.2773 75.4604L58.2288 75.3373C58.0667 74.9264 57.9736 74.4875 57.9736 74.0282V67.8588C57.9736 66.4492 56.8282 65.302 55.4204 65.302H10.2634C8.85443 65.302 7.71022 66.4481 7.71022 67.8588V115.157C7.71022 117.152 6.09455 118.769 4.10511 118.769C2.11567 118.769 0.5 117.152 0.5 115.157V67.8588C0.5 62.4644 4.88225 58.0766 10.2635 58.0766H10.2638L12.0325 58.0755L13.179 58.0747L12.3984 57.235C8.21218 52.7318 5.63236 46.7172 5.63236 40.0971C5.63236 26.1993 16.9188 14.8936 30.7891 14.8936C44.6617 14.8936 55.9481 26.1993 55.9481 40.0971C55.9481 46.716 53.3673 52.7307 49.182 57.2351L48.4012 58.0755H49.5483H55.4209C58.7979 58.0755 61.7809 59.8059 63.536 62.4298L63.8964 62.9686L64.326 62.4832C68.9408 57.2684 75.6505 53.9629 83.1306 53.9629C85.5753 53.9629 87.9345 54.3317 90.1728 54.9886L90.8136 55.1766V54.5088V53.4651C90.8136 48.0707 95.1959 43.6829 100.577 43.6829H105.426H106.573L105.792 42.8425C101.606 38.3393 99.0262 32.3246 99.0262 25.7045C99.0262 11.8067 110.313 0.500977 124.183 0.500977C138.053 0.500977 149.34 11.8067 149.34 25.7045C149.34 32.3234 146.759 38.3381 142.574 42.8425ZM30.787 22.1199C20.89 22.1199 12.8405 30.1854 12.8405 40.0982C12.8405 50.0122 20.8912 58.0777 30.787 58.0777C40.6875 58.0777 48.7359 50.011 48.7359 40.0982C48.7359 30.1853 40.6851 22.1199 30.787 22.1199ZM65.1841 79.1722C65.1841 89.085 73.2336 97.1505 83.1306 97.1505C93.0276 97.1505 101.077 89.085 101.077 79.1722C101.077 69.2582 93.0277 61.1915 83.1306 61.1915C73.2335 61.1915 65.1841 69.2582 65.1841 79.1722ZM124.183 7.72705C114.286 7.72705 106.236 15.7926 106.236 25.7054C106.236 35.6183 114.286 43.6838 124.183 43.6838C134.08 43.6838 142.129 35.6183 142.129 25.7054C142.129 15.7926 134.08 7.72705 124.183 7.72705Z" fill="#6F2CFF" stroke="#F9FAFB"/>
</svg>
