<svg width="182" height="35" viewBox="0 0 182 35" fill="none" xmlns="http://www.w3.org/2000/svg">
<path d="M13.2371 0.207997C22.7891 0.207997 33.3491 3.184 33.3491 17.248C33.3491 31.264 22.7891 34 13.2371 34H0.565063V33.184C2.62906 33.184 4.16506 30.688 4.16506 27.424V6.832C4.16506 3.856 2.67706 1.024 0.565063 1.024V0.207997H13.2371ZM13.2371 33.184C17.9411 33.184 24.9491 32.176 24.9491 17.248C24.9491 2.272 17.9411 1.024 13.2371 1.024H11.1251V33.184H13.2371ZM45.2328 4.288C45.2328 6.112 43.7448 7.552 41.9208 7.552C40.0968 7.552 38.6568 6.112 38.6568 4.288C38.6568 2.464 40.0968 1.024 41.9208 1.024C43.7448 1.024 45.2328 2.464 45.2328 4.288ZM45.3768 28.144C45.3768 30.832 45.6168 32.704 47.3448 33.184V34H37.5048V33.184C39.3288 32.608 39.4248 30.592 39.4248 28.144V17.488C39.4248 15.856 38.9448 15.184 36.9768 14.128V13.312L45.3768 11.392V28.144ZM63.7237 21.568C67.9957 24.208 69.4357 28.384 67.0357 31.84C67.0357 31.84 65.2117 34.432 60.3157 34.432C54.5077 34.432 51.6277 32.224 51.6277 32.224V26.176H52.4437C53.1637 28.048 54.6997 33.616 60.3157 33.616C63.7237 33.616 64.2997 29.296 60.6517 26.896L55.8037 23.968C51.1477 21.136 49.8997 17.248 52.5397 13.792C52.5397 13.792 54.3637 11.392 59.1637 11.392C64.6837 11.392 67.0837 12.832 67.0837 12.832V18.208H66.2677C65.6437 16.528 64.1077 12.208 59.1637 12.208C56.0437 12.208 54.6997 15.904 58.8757 18.544L63.7237 21.568ZM92.1078 27.808L92.7798 28.24C92.1078 30.688 89.2278 34.432 83.2278 34.432C76.9398 34.432 72.6678 28.432 72.6678 22.816C72.6678 17.296 76.8918 11.392 85.0998 11.392C88.5078 11.392 90.5718 12.784 91.3878 13.504C92.2038 14.224 92.6838 15.568 92.3478 16.72C91.8678 18.4 90.1398 19.504 88.4118 19.024C86.6838 18.592 85.6758 16.816 86.1558 15.136C86.3478 14.224 86.9238 13.6 87.6438 13.216C88.0758 13.024 87.0198 12.208 85.0998 12.208C83.3718 12.208 78.7158 13.696 78.7158 21.952C78.7158 27.136 81.4998 29.44 84.8118 30.16C87.2118 30.688 91.0038 29.392 92.1078 27.808ZM109.292 11.632C110.3 11.2 112.124 11.392 113.18 12.256C114.668 13.552 114.812 15.856 113.516 17.296C112.22 18.784 110.012 18.976 108.476 17.68C107.756 17.008 107.372 16.192 107.372 15.328C107.372 14.8 105.404 15.28 103.628 18.16V28.144C103.628 30.832 103.868 32.704 105.596 33.184V34H95.6598V33.184C97.5318 32.608 97.5798 30.64 97.5798 28.144V17.488C97.5798 15.856 97.1478 15.136 95.1798 14.128V13.312L103.628 11.392V16.816C106.172 12.832 108.14 12.112 109.292 11.632ZM122.818 21.664H132.226C132.226 15.616 130.258 12.208 127.618 12.208C124.786 12.208 122.818 17.056 122.818 21.664ZM127.858 11.392C134.818 11.392 138.082 14.992 138.082 22.48H122.818C123.202 27.184 125.602 29.632 128.818 30.352C131.41 30.928 135.25 29.968 136.45 27.712L137.266 28.144C136.498 30.64 133.666 34.432 127.234 34.432C120.946 34.432 116.626 28.624 116.626 23.008C116.626 16.24 121.234 11.392 127.858 11.392ZM147.99 21.664H157.398C157.398 15.616 155.43 12.208 152.79 12.208C149.958 12.208 147.99 17.056 147.99 21.664ZM153.03 11.392C159.99 11.392 163.254 14.992 163.254 22.48H147.99C148.374 27.184 150.774 29.632 153.99 30.352C156.582 30.928 160.422 29.968 161.622 27.712L162.438 28.144C161.67 30.64 158.838 34.432 152.406 34.432C146.118 34.432 141.798 28.624 141.798 23.008C141.798 16.24 146.406 11.392 153.03 11.392ZM178.154 31.024C179.546 31.024 180.602 30.064 181.034 29.344L181.754 29.776C180.794 32.032 177.866 34.432 174.65 34.432C170.858 34.432 168.602 32.896 168.602 27.088V12.64H166.202L166.058 11.824H168.602V5.392L174.602 4.384V11.824H180.314L180.122 12.64H174.602V26.944C174.602 29.632 175.754 31.024 178.154 31.024Z" fill="white"/>
</svg>
