<svg width="57" height="56" viewBox="0 0 57 56" fill="none" xmlns="http://www.w3.org/2000/svg">
<path fill-rule="evenodd" clip-rule="evenodd" d="M56.5 21C56.501 24.2801 55.7335 27.5148 54.2592 30.4449C52.785 33.375 50.6448 35.919 48.0103 37.8731C45.3757 39.8271 42.3201 41.1369 39.0882 41.6973C35.8564 42.2578 32.5381 42.0534 29.3995 41.1005L28.5 42L25 45.5L21.5 49H14.5V56H0.5V42L15.3995 27.1005C14.5261 24.2131 14.285 21.1713 14.6927 18.1823C15.1003 15.1933 16.1472 12.3273 17.762 9.77918C19.3768 7.2311 21.5216 5.06083 24.0504 3.41609C26.5793 1.77135 29.4328 0.690746 32.4168 0.247838C35.4008 -0.19507 38.4451 0.0101117 41.3427 0.849417C44.2402 1.68872 46.923 3.14245 49.2083 5.11165C51.4935 7.08085 53.3277 9.51929 54.586 12.261C55.8443 15.0027 56.4971 17.9834 56.5 21ZM35.5 7.00002C34.5717 7.00002 33.6815 7.36877 33.0251 8.02515C32.3687 8.68152 32 9.57176 32 10.5C32 11.4283 32.3687 12.3185 33.0251 12.9749C33.6815 13.6313 34.5717 14 35.5 14C37.3565 14 39.137 14.7375 40.4497 16.0503C41.7625 17.363 42.5 19.1435 42.5 21C42.5 21.9283 42.8688 22.8185 43.5251 23.4749C44.1815 24.1313 45.0717 24.5 46 24.5C46.9283 24.5 47.8185 24.1313 48.4749 23.4749C49.1312 22.8185 49.5 21.9283 49.5 21C49.5 17.287 48.025 13.726 45.3995 11.1005C42.774 8.47502 39.213 7.00002 35.5 7.00002Z" fill="white"/>
</svg>
