<svg width="17" height="17" viewBox="0 0 17 17" fill="none" xmlns="http://www.w3.org/2000/svg">
<path d="M7.16634 3.16664H2.99967C2.55765 3.16664 2.13372 3.34223 1.82116 3.65479C1.5086 3.96736 1.33301 4.39128 1.33301 4.83331V14C1.33301 14.442 1.5086 14.8659 1.82116 15.1785C2.13372 15.491 2.55765 15.6666 2.99967 15.6666H12.1663C12.6084 15.6666 13.0323 15.491 13.3449 15.1785C13.6574 14.8659 13.833 14.442 13.833 14V9.83331M12.6547 1.98831C12.8084 1.82912 12.9923 1.70215 13.1957 1.6148C13.399 1.52746 13.6177 1.48148 13.839 1.47956C14.0603 1.47763 14.2798 1.5198 14.4846 1.6036C14.6894 1.6874 14.8755 1.81116 15.032 1.96765C15.1885 2.12414 15.3122 2.31022 15.396 2.51505C15.4798 2.71988 15.522 2.93934 15.5201 3.16064C15.5182 3.38194 15.4722 3.60064 15.3848 3.80398C15.2975 4.00732 15.1705 4.19123 15.0113 4.34497L7.85634 11.5H5.49967V9.14331L12.6547 1.98831Z" stroke="#8F8F8F" stroke-width="2" stroke-linecap="round" stroke-linejoin="round"/>
</svg>
