<svg width="6" height="26" viewBox="0 0 6 26" fill="none" xmlns="http://www.w3.org/2000/svg">
<path d="M3 10C2.125 10 1.4375 10.3125 0.875 10.875C0.25 11.5 0 12.1875 0 13C0 13.875 0.25 14.5625 0.875 15.125C1.4375 15.75 2.125 16 3 16C3.8125 16 4.5 15.75 5.125 15.125C5.6875 14.5625 6 13.875 6 13C6 12.1875 5.6875 11.5 5.125 10.875C4.5 10.3125 3.8125 10 3 10ZM0 3.5C0 2.6875 0.25 2 0.875 1.375C1.4375 0.8125 2.125 0.5 3 0.5C3.8125 0.5 4.5 0.8125 5.125 1.375C5.6875 2 6 2.6875 6 3.5C6 4.375 5.6875 5.0625 5.125 5.625C4.5 6.25 3.8125 6.5 3 6.5C2.125 6.5 1.4375 6.25 0.875 5.625C0.25 5.0625 0 4.375 0 3.5ZM0 22.5C0 21.6875 0.25 21 0.875 20.375C1.4375 19.8125 2.125 19.5 3 19.5C3.8125 19.5 4.5 19.8125 5.125 20.375C5.6875 21 6 21.6875 6 22.5C6 23.375 5.6875 24.0625 5.125 24.625C4.5 25.25 3.8125 25.5 3 25.5C2.125 25.5 1.4375 25.25 0.875 24.625C0.25 24.0625 0 23.375 0 22.5Z" fill="#AAAAAA"/>
</svg>
