<svg width="32" height="30" viewBox="0 0 32 30" fill="none" xmlns="http://www.w3.org/2000/svg">
<path d="M18.8125 25.2375C17.8853 25.4128 16.9437 25.5007 16 25.5C9.28305 25.5 3.59805 21.0855 1.68555 15C2.20045 13.3622 2.99354 11.8252 4.03005 10.4565M12.817 11.8185C13.661 10.9745 14.8057 10.5004 15.9993 10.5004C17.1929 10.5004 18.3376 10.9745 19.1815 11.8185C20.0255 12.6625 20.4997 13.8072 20.4997 15.0007C20.4997 16.1943 20.0255 17.339 19.1815 18.183M12.817 11.8185L19.1815 18.183M12.817 11.8185L19.18 18.18M19.1815 18.183L24.118 23.118M12.82 11.82L7.88505 6.885M7.88505 6.885L2.50005 1.5M7.88505 6.885C10.3036 5.32435 13.1217 4.49611 16 4.5C22.717 4.5 28.402 8.9145 30.3145 15C29.2586 18.3457 27.0661 21.2169 24.1165 23.1165M7.88505 6.885L24.1165 23.1165M24.1165 23.1165L29.5 28.5" stroke="#D9041E" stroke-width="2" stroke-linecap="round" stroke-linejoin="round"/>
</svg>
