<svg width="36" height="36" viewBox="0 0 36 36" fill="none" xmlns="http://www.w3.org/2000/svg">
<path d="M21.182 21.182C22.0259 20.3381 22.5 19.1935 22.5 18C22.5 16.8065 22.0259 15.6619 21.182 14.818C20.3381 13.9741 19.1935 13.5 18 13.5C16.8065 13.5 15.6619 13.9741 14.818 14.818C13.9741 15.6619 13.5 16.8065 13.5 18C13.5 19.1935 13.9741 20.3381 14.818 21.182C15.6619 22.0259 16.8065 22.5 18 22.5C19.1935 22.5 20.3381 22.0259 21.182 21.182Z" stroke="#921A64" stroke-width="2" stroke-linecap="round" stroke-linejoin="round"/>
<path d="M3.68652 18C5.59752 11.9145 11.284 7.5 17.9995 7.5C24.7165 7.5 30.4015 11.9145 32.3125 18C30.4015 24.0855 24.7165 28.5 17.9995 28.5C11.284 28.5 5.59752 24.0855 3.68652 18Z" stroke="#921A64" stroke-width="2" stroke-linecap="round" stroke-linejoin="round"/>
</svg>
