<svg width="21" height="20" viewBox="0 0 21 20" fill="none" xmlns="http://www.w3.org/2000/svg">
<g clip-path="url(#clip0_3267_4180)">
<path d="M10.5 12C11.0304 12 11.5391 11.7893 11.9142 11.4142C12.2893 11.0391 12.5 10.5304 12.5 10C12.5 9.46957 12.2893 8.96086 11.9142 8.58579C11.5391 8.21071 11.0304 8 10.5 8C9.96957 8 9.46086 8.21071 9.08579 8.58579C8.71071 8.96086 8.5 9.46957 8.5 10C8.5 10.5304 8.71071 11.0391 9.08579 11.4142C9.46086 11.7893 9.96957 12 10.5 12Z" fill="white"/>
<path fill-rule="evenodd" clip-rule="evenodd" d="M0.958008 10C2.23201 5.943 6.02201 3 10.5 3C14.978 3 18.768 5.943 20.042 10C18.768 14.057 14.978 17 10.5 17C6.02201 17 2.23201 14.057 0.958008 10ZM14.5 10C14.5 11.0609 14.0786 12.0783 13.3284 12.8284C12.5783 13.5786 11.5609 14 10.5 14C9.43914 14 8.42173 13.5786 7.67158 12.8284C6.92143 12.0783 6.50001 11.0609 6.50001 10C6.50001 8.93913 6.92143 7.92172 7.67158 7.17157C8.42173 6.42143 9.43914 6 10.5 6C11.5609 6 12.5783 6.42143 13.3284 7.17157C14.0786 7.92172 14.5 8.93913 14.5 10V10Z" fill="#F9FAFB"/>
</g>
<defs>
<clipPath id="clip0_3267_4180">
<rect width="20" height="20" fill="white" transform="translate(0.5)"/>
</clipPath>
</defs>
</svg>
