<svg width="71" height="70" viewBox="0 0 71 70" fill="none" xmlns="http://www.w3.org/2000/svg">
<path d="M70.5 3.90625V66.0938C70.5 67.1354 70.1354 68.0208 69.4062 68.75C68.6771 69.5833 67.7396 70 66.5938 70H48.7812V42.8125H57.8438L59.25 32.3438H48.7812V25.625C48.7812 23.8542 49.0938 22.6042 49.7188 21.875C50.5521 20.9375 51.9583 20.4688 53.9375 20.4688H59.5625V10.9375C57.375 10.7292 54.6667 10.625 51.4375 10.625C47.375 10.625 44.0938 11.8229 41.5938 14.2188C39.0938 16.6146 37.8438 20.0521 37.8438 24.5312V32.3438H28.7812V42.8125H37.8438V70H4.40625C3.26042 70 2.32292 69.5833 1.59375 68.75C0.864583 68.0208 0.5 67.1354 0.5 66.0938V3.90625C0.5 2.76042 0.864583 1.82292 1.59375 1.09375C2.32292 0.364583 3.26042 0 4.40625 0H66.5938C67.6354 0 68.5208 0.364583 69.25 1.09375C70.0833 1.82292 70.5 2.76042 70.5 3.90625Z" fill="#8F8F8F"/>
</svg>
