<svg width="199" height="200" viewBox="0 0 199 200" fill="none" xmlns="http://www.w3.org/2000/svg">
<path d="M163.574 42.8425L162.793 43.6829H163.94H166.724L166.726 43.683H166.737C172.118 43.683 176.5 48.0719 176.5 53.4652V100.763C176.5 102.758 174.885 104.376 172.895 104.376C170.906 104.376 169.29 102.758 169.29 100.763V53.4681C169.29 52.0585 168.145 50.9112 166.737 50.9112H121.58C120.171 50.9112 119.027 52.0573 119.027 53.4681V58.6573V58.9063L119.226 59.0563C125.325 63.6607 129.29 70.9519 129.29 79.1717C129.29 85.7905 126.71 91.8052 122.524 96.3097L121.743 97.15H122.891H125.685C131.067 97.15 135.449 101.538 135.449 106.931V141.888C135.449 143.885 133.833 145.501 131.844 145.501C129.854 145.501 128.239 143.884 128.239 141.888L128.237 106.931C128.237 105.522 127.092 104.375 125.684 104.375H80.5272C79.1183 104.375 77.9741 105.523 77.9741 106.931V141.888C77.9741 143.884 76.3584 145.501 74.369 145.501C72.3795 145.501 70.7638 143.884 70.7638 141.888V106.928C70.7638 101.535 75.1461 97.1471 80.5274 97.1471H85.3739H86.5214L85.7401 96.3067C81.5539 91.8035 78.9741 85.7889 78.9741 79.1688C78.9741 77.9598 79.0907 76.7728 79.2591 75.5914L79.2778 75.4604L79.2293 75.3373C79.0672 74.9264 78.9741 74.4875 78.9741 74.0282V67.8588C78.9741 66.4492 77.8287 65.302 76.4209 65.302H31.2638C29.8549 65.302 28.7107 66.4481 28.7107 67.8588V115.157C28.7107 117.152 27.095 118.769 25.1056 118.769C23.1162 118.769 21.5005 117.152 21.5005 115.157V67.8588C21.5005 62.4644 25.8827 58.0766 31.264 58.0766H31.2643L33.033 58.0755L34.1795 58.0747L33.3989 57.235C29.2127 52.7318 26.6328 46.7172 26.6328 40.0971C26.6328 26.1993 37.9193 14.8936 51.7896 14.8936C65.6622 14.8936 76.9486 26.1993 76.9486 40.0971C76.9486 46.716 74.3678 52.7307 70.1825 57.2351L69.4017 58.0755H70.5488H76.4214C79.7984 58.0755 82.7814 59.8059 84.5365 62.4298L84.8969 62.9686L85.3265 62.4832C89.9413 57.2684 96.651 53.9629 104.131 53.9629C106.576 53.9629 108.935 54.3317 111.173 54.9886L111.814 55.1766V54.5088V53.4651C111.814 48.0707 116.196 43.6829 121.578 43.6829H126.426H127.574L126.793 42.8425C122.606 38.3393 120.027 32.3246 120.027 25.7045C120.027 11.8067 131.313 0.500977 145.183 0.500977C159.054 0.500977 170.34 11.8067 170.34 25.7045C170.34 32.3234 167.759 38.3381 163.574 42.8425ZM51.7875 22.1199C41.8905 22.1199 33.841 30.1854 33.841 40.0982C33.841 50.0122 41.8917 58.0777 51.7875 58.0777C61.688 58.0777 69.7363 50.011 69.7363 40.0982C69.7363 30.1853 61.6856 22.1199 51.7875 22.1199ZM86.1846 79.1722C86.1846 89.085 94.2341 97.1505 104.131 97.1505C114.028 97.1505 122.078 89.085 122.078 79.1722C122.078 69.2582 114.028 61.1915 104.131 61.1915C94.234 61.1915 86.1846 69.2582 86.1846 79.1722ZM145.183 7.72705C135.286 7.72705 127.237 15.7926 127.237 25.7054C127.237 35.6183 135.286 43.6838 145.183 43.6838C155.08 43.6838 163.13 35.6183 163.13 25.7054C163.13 15.7926 155.08 7.72705 145.183 7.72705Z" fill="#6F2CFF" stroke="#F9FAFB"/>
<path d="M23.5339 174.652H18.7527C18.6163 173.868 18.3649 173.173 17.9984 172.568C17.6319 171.955 17.176 171.435 16.6305 171.009C16.0851 170.582 15.4629 170.263 14.764 170.05C14.0737 169.828 13.3279 169.717 12.5268 169.717C11.1035 169.717 9.84215 170.075 8.74272 170.791C7.64329 171.499 6.78249 172.538 6.16033 173.911C5.53817 175.274 5.2271 176.94 5.2271 178.909C5.2271 180.912 5.53817 182.599 6.16033 183.972C6.79102 185.335 7.65181 186.366 8.74272 187.065C9.84215 187.756 11.0993 188.101 12.514 188.101C13.2981 188.101 14.0311 187.999 14.7129 187.794C15.4032 187.581 16.0211 187.27 16.5666 186.861C17.1206 186.452 17.5851 185.949 17.9601 185.352C18.3436 184.756 18.6078 184.074 18.7527 183.307L23.5339 183.332C23.3549 184.577 22.9672 185.744 22.3706 186.835C21.7825 187.926 21.0112 188.889 20.0566 189.724C19.1021 190.551 17.9856 191.199 16.7072 191.668C15.4288 192.128 14.0098 192.358 12.4501 192.358C10.149 192.358 8.09499 191.825 6.28818 190.76C4.48136 189.695 3.05806 188.156 2.01829 186.145C0.978516 184.134 0.458629 181.722 0.458629 178.909C0.458629 176.088 0.982777 173.676 2.03107 171.673C3.07937 169.662 4.50692 168.124 6.31374 167.058C8.12056 165.993 10.166 165.46 12.4501 165.46C13.9075 165.46 15.2626 165.665 16.5154 166.074C17.7683 166.483 18.8848 167.084 19.8649 167.876C20.845 168.661 21.6504 169.624 22.2811 170.766C22.9203 171.899 23.3379 173.195 23.5339 174.652ZM36.2381 192.384C34.3205 192.384 32.6586 191.962 31.2523 191.118C29.8461 190.274 28.7551 189.094 27.9796 187.577C27.2125 186.06 26.829 184.287 26.829 182.259C26.829 180.23 27.2125 178.453 27.9796 176.928C28.7551 175.402 29.8461 174.217 31.2523 173.374C32.6586 172.53 34.3205 172.108 36.2381 172.108C38.1557 172.108 39.8176 172.53 41.2239 173.374C42.6301 174.217 43.7168 175.402 44.4838 176.928C45.2594 178.453 45.6472 180.23 45.6472 182.259C45.6472 184.287 45.2594 186.06 44.4838 187.577C43.7168 189.094 42.6301 190.274 41.2239 191.118C39.8176 191.962 38.1557 192.384 36.2381 192.384ZM36.2637 188.676C37.3034 188.676 38.1728 188.391 38.8716 187.82C39.5705 187.24 40.0904 186.464 40.4313 185.493C40.7807 184.521 40.9554 183.439 40.9554 182.246C40.9554 181.044 40.7807 179.957 40.4313 178.986C40.0904 178.006 39.5705 177.226 38.8716 176.646C38.1728 176.067 37.3034 175.777 36.2637 175.777C35.1983 175.777 34.312 176.067 33.6046 176.646C32.9057 177.226 32.3816 178.006 32.0321 178.986C31.6912 179.957 31.5208 181.044 31.5208 182.246C31.5208 183.439 31.6912 184.521 32.0321 185.493C32.3816 186.464 32.9057 187.24 33.6046 187.82C34.312 188.391 35.1983 188.676 36.2637 188.676ZM49.5751 192V172.364H53.9984V175.7H54.2285C54.6376 174.575 55.3152 173.697 56.2612 173.067C57.2072 172.428 58.3365 172.108 59.649 172.108C60.9785 172.108 62.0993 172.432 63.0112 173.08C63.9316 173.719 64.5794 174.592 64.9544 175.7H65.1589C65.5936 174.609 66.3265 173.74 67.3578 173.092C68.3976 172.436 69.6291 172.108 71.0524 172.108C72.8592 172.108 74.3336 172.679 75.4757 173.821C76.6177 174.963 77.1887 176.629 77.1887 178.82V192H72.5481V179.536C72.5481 178.317 72.2243 177.426 71.5765 176.864C70.9288 176.293 70.1362 176.007 69.1987 176.007C68.0822 176.007 67.2086 176.357 66.5779 177.055C65.9558 177.746 65.6447 178.645 65.6447 179.753V192H61.1064V179.344C61.1064 178.33 60.7995 177.52 60.1859 176.915C59.5808 176.31 58.7882 176.007 57.8081 176.007C57.1433 176.007 56.5382 176.178 55.9927 176.518C55.4473 176.851 55.0126 177.324 54.6887 177.938C54.3649 178.543 54.2029 179.25 54.2029 180.06V192H49.5751ZM81.8837 192V172.364H86.307V175.7H86.5371C86.9462 174.575 87.6238 173.697 88.5698 173.067C89.5158 172.428 90.6451 172.108 91.9576 172.108C93.2871 172.108 94.4078 172.432 95.3198 173.08C96.2402 173.719 96.888 174.592 97.263 175.7H97.4675C97.9022 174.609 98.6351 173.74 99.6664 173.092C100.706 172.436 101.938 172.108 103.361 172.108C105.168 172.108 106.642 172.679 107.784 173.821C108.926 174.963 109.497 176.629 109.497 178.82V192H104.857V179.536C104.857 178.317 104.533 177.426 103.885 176.864C103.237 176.293 102.445 176.007 101.507 176.007C100.391 176.007 99.5172 176.357 98.8865 177.055C98.2644 177.746 97.9533 178.645 97.9533 179.753V192H93.415V179.344C93.415 178.33 93.1081 177.52 92.4945 176.915C91.8894 176.31 91.0968 176.007 90.1167 176.007C89.4519 176.007 88.8468 176.178 88.3013 176.518C87.7559 176.851 87.3212 177.324 86.9973 177.938C86.6735 178.543 86.5115 179.25 86.5115 180.06V192H81.8837ZM126.708 183.741V172.364H131.336V192H126.849V188.51H126.644C126.201 189.609 125.472 190.509 124.458 191.207C123.452 191.906 122.212 192.256 120.738 192.256C119.451 192.256 118.313 191.97 117.324 191.399C116.344 190.82 115.577 189.98 115.023 188.881C114.469 187.773 114.192 186.435 114.192 184.866V172.364H118.82V184.151C118.82 185.395 119.161 186.384 119.843 187.116C120.525 187.849 121.42 188.216 122.528 188.216C123.209 188.216 123.87 188.05 124.509 187.717C125.148 187.385 125.672 186.891 126.081 186.234C126.499 185.57 126.708 184.739 126.708 183.741ZM140.722 180.494V192H136.095V172.364H140.518V175.7H140.748C141.2 174.601 141.92 173.727 142.909 173.08C143.906 172.432 145.137 172.108 146.603 172.108C147.958 172.108 149.139 172.398 150.144 172.977C151.159 173.557 151.943 174.396 152.497 175.496C153.059 176.595 153.336 177.929 153.328 179.497V192H148.7V180.213C148.7 178.901 148.359 177.874 147.677 177.132C147.004 176.391 146.07 176.02 144.877 176.02C144.068 176.02 143.347 176.199 142.717 176.557C142.095 176.906 141.605 177.413 141.247 178.078C140.897 178.743 140.722 179.548 140.722 180.494ZM158.032 192V172.364H162.66V192H158.032ZM160.359 169.577C159.626 169.577 158.995 169.334 158.467 168.848C157.938 168.354 157.674 167.761 157.674 167.071C157.674 166.372 157.938 165.78 158.467 165.294C158.995 164.8 159.626 164.553 160.359 164.553C161.1 164.553 161.731 164.8 162.251 165.294C162.779 165.78 163.044 166.372 163.044 167.071C163.044 167.761 162.779 168.354 162.251 168.848C161.731 169.334 161.1 169.577 160.359 169.577ZM177.224 172.364V175.943H165.936V172.364H177.224ZM168.723 167.659H173.351V186.094C173.351 186.716 173.444 187.193 173.632 187.526C173.828 187.849 174.084 188.071 174.399 188.19C174.714 188.31 175.064 188.369 175.447 188.369C175.737 188.369 176.001 188.348 176.24 188.305C176.487 188.263 176.675 188.224 176.802 188.19L177.582 191.808C177.335 191.893 176.981 191.987 176.521 192.089C176.069 192.192 175.515 192.251 174.859 192.268C173.7 192.303 172.656 192.128 171.727 191.744C170.798 191.352 170.061 190.747 169.515 189.929C168.979 189.111 168.714 188.088 168.723 186.861V167.659ZM183.971 199.364C183.34 199.364 182.757 199.313 182.22 199.21C181.691 199.116 181.269 199.006 180.954 198.878L182.028 195.273C182.701 195.469 183.302 195.563 183.83 195.554C184.359 195.545 184.823 195.379 185.224 195.055C185.633 194.74 185.978 194.212 186.259 193.47L186.656 192.409L179.535 172.364H184.444L188.97 187.193H189.174L193.713 172.364H198.634L190.772 194.378C190.406 195.418 189.92 196.308 189.315 197.05C188.71 197.8 187.968 198.371 187.09 198.763C186.221 199.163 185.181 199.364 183.971 199.364Z" fill="#6F2CFF"/>
</svg>
