<svg width="147" height="150" viewBox="0 0 147 150" fill="none" xmlns="http://www.w3.org/2000/svg">
<path d="M132.502 107.447H14.4861V114.256H132.502V107.447Z" fill="#F9FAFB"/>
<path d="M24.3315 150H59.7902V141.544H7.76868C11.6402 146.731 17.8705 150 24.3315 150Z" fill="#F9FAFB"/>
<path d="M14.4861 17.1831C18.896 17.1831 22.5111 13.3736 22.5111 8.72664C22.5111 4.07964 18.896 0 14.4861 0C10.0762 0 6.46106 3.80946 6.46106 8.45646C6.46106 13.1035 10.0762 17.1831 14.4861 17.1831Z" fill="#F9FAFB"/>
<path d="M85.6343 141.544H62.8669V150H85.6343V141.544Z" fill="#F9FAFB"/>
<path d="M135.861 0.0263672C133.272 0.0263672 130.938 2.21478 130.938 5.21372C130.938 8.21266 133.015 10.4011 135.861 10.4011C138.707 10.4011 140.784 8.21266 140.784 5.21372C140.784 2.21478 138.451 0.0263672 135.861 0.0263672Z" fill="#F9FAFB"/>
<path d="M88.7623 150H122.657C129.118 150 135.348 146.731 139.22 141.544H88.7623V150Z" fill="#F9FAFB"/>
<path d="M13.9732 117.553L6.97375 138.005H139.989L132.99 117.553H13.9732ZM64.6872 122.74H68.0459C68.8151 122.74 69.6099 123.551 69.6099 124.388C69.6099 125.226 68.8407 126.036 68.0459 126.036H64.6872C63.918 126.036 63.1232 125.226 63.1232 124.388C63.1232 123.551 63.636 122.74 64.6872 122.74ZM51.7395 122.74H55.0982C55.8674 122.74 56.6622 123.551 56.6622 124.388C56.6622 125.226 55.893 126.036 55.0982 126.036H51.7395C50.9703 126.036 50.1755 125.226 50.1755 124.388C50.1755 123.551 50.6883 122.74 51.7395 122.74ZM28.972 133.115H25.6133C24.8442 133.115 24.0493 132.304 24.0493 131.467C24.0493 130.629 24.8185 129.819 25.6133 129.819H28.972C29.7412 129.819 30.536 130.629 30.536 131.467C30.536 132.304 30.0232 133.115 28.972 133.115ZM28.972 126.306H25.6133C24.8442 126.306 24.0493 125.496 24.0493 124.658C24.0493 123.821 24.8185 123.01 25.6133 123.01H28.972C29.7412 123.01 30.536 123.821 30.536 124.658C30.536 125.496 30.0232 126.306 28.972 126.306ZM41.9197 133.115H38.561C37.7919 133.115 36.997 132.304 36.997 131.467C36.997 130.629 37.7662 129.819 38.561 129.819H41.9197C42.6889 129.819 43.4837 130.629 43.4837 131.467C43.4837 132.304 42.9709 133.115 41.9197 133.115ZM41.9197 126.306H38.561C37.7919 126.306 36.997 125.496 36.997 124.658C36.997 123.821 37.7662 123.01 38.561 123.01H41.9197C42.6889 123.01 43.4837 123.821 43.4837 124.658C43.4837 125.496 42.9709 126.306 41.9197 126.306ZM80.7372 133.115H51.7651C50.996 133.115 50.2011 132.304 50.2011 131.467C50.2011 130.629 50.9703 129.819 51.7651 129.819H81.0192C81.7884 129.819 82.5832 130.629 82.5832 131.467C82.5832 132.304 81.814 133.115 80.7628 133.115H80.7372ZM80.7372 126.306H77.3785C76.6093 126.306 75.8145 125.496 75.8145 124.658C75.8145 123.821 76.5837 123.01 77.3785 123.01H80.7372C81.5064 123.01 82.3012 123.821 82.3012 124.658C82.3012 125.496 81.7884 126.306 80.7372 126.306ZM93.6849 133.115H90.3262C89.557 133.115 88.7622 132.304 88.7622 131.467C88.7622 130.629 89.5314 129.819 90.3262 129.819H93.6849C94.4541 129.819 95.2489 130.629 95.2489 131.467C95.2489 132.304 94.7361 133.115 93.6849 133.115ZM93.6849 126.306H90.3262C89.557 126.306 88.7622 125.496 88.7622 124.658C88.7622 123.821 89.5314 123.01 90.3262 123.01H93.6849C94.4541 123.01 95.2489 123.821 95.2489 124.658C95.2489 125.496 94.7361 126.306 93.6849 126.306ZM106.633 133.115H103.274C102.505 133.115 101.71 132.304 101.71 131.467C101.71 130.629 102.479 129.819 103.274 129.819H106.633C107.402 129.819 108.197 130.629 108.197 131.467C108.197 132.304 107.684 133.115 106.633 133.115ZM106.633 126.306H103.274C102.505 126.306 101.71 125.496 101.71 124.658C101.71 123.821 102.479 123.01 103.274 123.01H106.633C107.402 123.01 108.197 123.821 108.197 124.658C108.197 125.496 107.684 126.306 106.633 126.306ZM119.58 133.115H116.222C115.452 133.115 114.658 132.304 114.658 131.467C114.658 130.629 115.427 129.819 116.222 129.819H119.58C120.35 129.819 121.144 130.629 121.144 131.467C121.144 132.304 120.632 133.115 119.58 133.115ZM119.58 126.306H116.222C115.452 126.306 114.658 125.496 114.658 124.658C114.658 123.821 115.427 123.01 116.222 123.01H119.58C120.35 123.01 121.144 123.821 121.144 124.658C121.144 125.496 120.632 126.306 119.58 126.306Z" fill="#F9FAFB"/>
<path d="M115.401 8.75391C116.683 8.75391 117.734 9.86162 117.734 11.2125C117.734 12.5634 116.683 13.6711 115.401 13.6711C114.119 13.6711 113.068 12.5634 113.068 11.2125C113.068 9.86162 114.119 8.75391 115.401 8.75391Z" fill="#F9FAFB"/>
<path d="M78.4041 1.91797C79.686 1.91797 80.7372 3.02568 80.7372 4.37656C80.7372 5.72743 79.686 6.83515 78.4041 6.83515C77.1221 6.83515 76.0709 5.72743 76.0709 4.37656C76.0709 3.02568 77.1221 1.91797 78.4041 1.91797Z" fill="#F9FAFB"/>
<path d="M47.6116 12.0234C48.8935 12.0234 49.9447 13.1312 49.9447 14.482C49.9447 15.8329 48.8935 16.9406 47.6116 16.9406C46.3296 16.9406 45.2784 15.8329 45.2784 14.482C45.2784 13.1312 46.3296 12.0234 47.6116 12.0234Z" fill="#F9FAFB"/>
<path d="M144.655 71.7305C145.937 71.7305 146.989 72.8382 146.989 74.1891C146.989 75.5399 145.937 76.6476 144.655 76.6476C143.373 76.6476 142.322 75.5399 142.322 74.1891C142.322 72.8382 143.373 71.7305 144.655 71.7305Z" fill="#F9FAFB"/>
<path d="M2.33315 49.6582C3.6151 49.6582 4.66631 50.7659 4.66631 52.1168C4.66631 53.4677 3.6151 54.5754 2.33315 54.5754C1.0512 54.5754 0 53.4677 0 52.1168C0 50.7659 1.0512 49.6582 2.33315 49.6582Z" fill="#F9FAFB"/>
<path fill-rule="evenodd" clip-rule="evenodd" d="M14.4858 103.936V40.9313C14.4858 34.3931 19.6649 28.9355 25.8695 28.9355H121.118C127.323 28.9355 132.502 34.3931 132.502 40.9313V103.936H14.4858ZM122.913 81.8357H106.607C105.812 81.8357 105.043 82.6462 105.043 83.4838C105.043 84.3213 105.838 85.1319 106.607 85.1319H122.913C123.708 85.1319 124.477 84.3213 124.477 83.4838C124.477 82.6462 123.682 81.8357 122.913 81.8357ZM122.913 90.2922H106.607C105.812 90.2922 105.043 91.1027 105.043 91.9403C105.043 92.7778 105.838 93.5883 106.607 93.5883H122.913C123.708 93.5883 124.477 92.7778 124.477 91.9403C124.477 91.1027 123.682 90.2922 122.913 90.2922ZM40.3555 81.8357H24.0491C23.2543 81.8357 22.4851 82.6462 22.4851 83.4838C22.4851 84.3213 23.28 85.1319 24.0491 85.1319H40.3555C41.1504 85.1319 41.9195 84.3213 41.9195 83.4838C41.9195 82.6462 41.1247 81.8357 40.3555 81.8357ZM40.3555 90.2922H24.0491C23.2543 90.2922 22.4851 91.1027 22.4851 91.9403C22.4851 92.7778 23.28 93.5883 24.0491 93.5883H40.3555C41.1504 93.5883 41.9195 92.7778 41.9195 91.9403C41.9195 91.1027 41.1247 90.2922 40.3555 90.2922ZM74.3916 96.7212V88.7317C79.4154 87.4702 81.6025 80.9896 78.5492 76.4878H92.1049V89.4738C92.1049 93.4809 89.2682 96.7212 85.7602 96.7212H74.3916ZM77.2289 80.9916C77.2289 78.4934 75.4749 76.2425 73.0712 76.2425C70.6676 76.2425 68.9136 78.246 68.9136 80.9916C68.9136 83.7372 70.6676 85.7408 73.0712 85.7408C75.4749 85.7408 77.2289 83.4899 77.2289 80.9916ZM64.7772 51.5062C64.1059 51.5062 63.4563 52.273 63.4563 53.015H63.2831V60.7571H59.1254V53.015C59.1254 44.2835 65.2536 37.2835 72.8977 37.2835C80.5417 37.2835 86.6699 44.5309 86.6699 53.015V60.7571H82.5122V53.015C82.5122 52.2482 81.8626 51.5062 81.1913 51.5062C80.52 51.5062 79.8704 52.273 79.8704 53.015V60.7571H66.0982V53.015C66.0982 52.2482 65.4485 51.5062 64.7772 51.5062ZM92.3002 63.7496H54.0585V73.2231H92.3002V63.7496ZM71.7718 96.7212H60.4032C56.8952 96.7212 54.0584 93.2088 53.8419 89.4738V76.4878H67.6141C64.5609 80.9896 66.9645 87.495 71.7718 88.7317V96.7212Z" fill="#F9FAFB"/>
</svg>
