<svg width="26" height="26" viewBox="0 0 26 26" fill="none" xmlns="http://www.w3.org/2000/svg">
<g filter="url(#filter0_d_3143_3812)">
<path d="M22.1298 8.81866L16.6222 8.27051C16.275 8.23728 15.9749 8.00474 15.8331 7.65591L13.8603 2.6229C13.5447 1.79237 12.424 1.79237 12.1084 2.6229L10.1515 7.65591C10.0252 8.00474 9.70958 8.23728 9.36238 8.27051L3.85455 8.81866C3.0339 8.90171 2.70248 9.9814 3.31797 10.5628L7.46857 14.3998C7.73686 14.649 7.84734 15.0144 7.76843 15.3798L6.52167 20.7615C6.33229 21.6088 7.20028 22.3063 7.92624 21.858L12.5187 19.0174C12.8186 18.8347 13.1816 18.8347 13.4814 19.0174L18.0741 21.858C18.8 22.3063 19.668 21.6254 19.4785 20.7615L18.2475 15.3798C18.1686 15.0144 18.2791 14.649 18.5474 14.3998L22.698 10.5628C23.2977 9.9814 22.9505 8.90171 22.1298 8.81866Z" fill="#921A64"/>
<path d="M22.1802 8.3212L22.1793 8.32112L16.6717 7.77296L16.6698 7.77278C16.5246 7.75889 16.3756 7.66032 16.2972 7.47003L14.3267 2.44266C13.8466 1.18555 12.1215 1.18578 11.6418 2.44334C11.6415 2.44398 11.6413 2.44463 11.641 2.44527L9.68546 7.47472L9.68533 7.47467L9.68132 7.48575C9.62222 7.64904 9.47382 7.75756 9.31476 7.77278L9.31287 7.77296L3.80503 8.32111L3.80421 8.3212C3.162 8.38619 2.72735 8.84431 2.56978 9.35694C2.41254 9.86848 2.51167 10.489 2.97463 10.9263L2.97461 10.9263L2.97856 10.9299L7.12832 14.7662C7.12841 14.7663 7.12849 14.7663 7.12857 14.7664C7.26176 14.8903 7.32213 15.0729 7.28036 15.2712L6.03457 20.6487L6.03455 20.6487L6.03371 20.6525C5.89456 21.275 6.1454 21.8522 6.5709 22.1881C7.00128 22.5278 7.62778 22.63 8.18896 22.2834L8.18926 22.2832L12.7789 19.4444C12.7793 19.4441 12.7797 19.4439 12.7801 19.4437C12.9195 19.3593 13.0807 19.3593 13.2201 19.4437C13.2205 19.4439 13.2209 19.4441 13.2212 19.4444L17.8111 22.2832L17.8114 22.2834C18.3686 22.6275 18.9941 22.5347 19.4276 22.1957C19.8573 21.8596 20.1044 21.2812 19.9669 20.6544L19.9669 20.6544L19.9659 20.65L18.7357 15.2718C18.6937 15.0734 18.754 14.8906 18.8872 14.7666C18.8873 14.7664 18.8875 14.7663 18.8876 14.7662L23.0374 10.9299L23.0375 10.93L23.046 10.9218C23.5021 10.4796 23.5866 9.85687 23.4222 9.34967C23.2574 8.84142 22.8205 8.386 22.1802 8.3212Z" stroke="#921A64"/>
</g>
<defs>
<filter id="filter0_d_3143_3812" x="0.000488281" y="0" width="25.999" height="26.0003" filterUnits="userSpaceOnUse" color-interpolation-filters="sRGB">
<feFlood flood-opacity="0" result="BackgroundImageFix"/>
<feColorMatrix in="SourceAlpha" type="matrix" values="0 0 0 0 0 0 0 0 0 0 0 0 0 0 0 0 0 0 127 0" result="hardAlpha"/>
<feOffset dy="1"/>
<feGaussianBlur stdDeviation="1"/>
<feColorMatrix type="matrix" values="0 0 0 0 0.121569 0 0 0 0 0.160784 0 0 0 0 0.215686 0 0 0 0.08 0"/>
<feBlend mode="normal" in2="BackgroundImageFix" result="effect1_dropShadow_3143_3812"/>
<feBlend mode="normal" in="SourceGraphic" in2="effect1_dropShadow_3143_3812" result="shape"/>
</filter>
</defs>
</svg>
