<svg width="146" height="144" viewBox="0 0 146 144" fill="none" xmlns="http://www.w3.org/2000/svg">
<path d="M65.7372 66.475C77.612 54.4623 77.612 34.9987 65.7372 22.9861C53.8624 10.9734 34.6473 10.9734 22.7475 22.9861C10.8727 34.9987 10.8727 54.4623 22.7475 66.475C34.6223 78.4876 53.8374 78.4876 65.7372 66.475ZM41.4615 52.1561L33.8707 44.4771L26.2799 52.1561C25.7788 52.6629 24.7517 52.6629 24.0001 52.1561C23.4991 51.6492 23.4991 50.6101 24.0001 49.8498L32.593 41.1571C33.0941 40.6503 34.1212 40.6503 34.8728 41.1571L42.4636 48.8361L59.399 31.7041C59.9 31.1973 60.9271 31.1973 61.6787 31.7041C62.1798 32.211 62.1798 33.2501 61.6787 34.0103L43.4657 52.4348C42.9647 52.6883 41.9375 52.6883 41.4365 52.1814L41.4615 52.1561Z" fill="#F9FAFB"/>
<path d="M86.731 122.761H94.8228V111.002L86.731 114.322V122.761Z" fill="#F9FAFB"/>
<path d="M120.101 35.0253C126.163 35.0253 131.224 29.9059 131.224 23.7729C131.224 17.6398 126.163 12.5205 120.101 12.5205C114.038 12.5205 108.977 17.6398 108.977 23.7729C108.977 29.9059 113.787 35.0253 120.101 35.0253Z" fill="#F9FAFB"/>
<path d="M9.34441 109.964C5.03542 109.964 1.50305 113.537 1.50305 117.896C1.50305 122.255 5.03542 125.829 9.34441 125.829C13.6534 125.829 17.1858 122.255 17.1858 117.896C17.1858 113.816 13.6534 109.964 9.34441 109.964Z" fill="#F9FAFB"/>
<path d="M97.8541 122.762H105.695V106.137L97.8541 109.457V122.762Z" fill="#F9FAFB"/>
<path d="M45.7454 104.084V89.5121C69.52 88.7518 88.4846 68.7814 88.4846 44.7561C88.4846 20.7307 68.5179 0 44.2423 0C19.9667 0 0 20.1985 0 44.7561C0 69.3136 18.9646 88.7518 42.7392 89.5121V104.084C38.9563 104.845 36.1755 108.19 36.1755 112.27V135.814C36.1755 140.427 39.7078 144 44.2673 144C48.8269 144 52.3592 140.427 52.3592 135.814V112.27C52.3592 108.165 49.5784 104.845 45.7955 104.084H45.7454ZM20.4677 20.7054C33.6201 7.40021 54.8645 7.40021 68.0169 20.7054C81.1693 34.0106 81.1693 55.5016 68.0169 68.8067C54.8645 82.1119 33.6201 82.1119 20.4677 68.8067C7.31526 55.2481 7.31526 34.0106 20.4677 20.7054Z" fill="#F9FAFB"/>
<path d="M120.101 122.762H127.942V96.4053L120.101 99.9787V122.762Z" fill="#F9FAFB"/>
<path d="M108.977 122.763H116.819V101.271L108.977 104.845V122.763Z" fill="#F9FAFB"/>
<path d="M144.376 52.6634C143.875 52.41 144.126 52.6634 135.783 52.6634C135.032 52.6634 134.255 53.4237 134.255 54.2094C134.255 54.995 135.007 55.7553 135.783 55.7553H139.842L103.441 92.5789L96.6017 85.6856C96.1006 85.1787 95.0735 85.1787 94.3219 85.6856L80.9189 99.2442C80.4179 99.7511 80.4179 100.79 80.9189 101.55C81.42 102.057 82.4471 102.057 83.1987 101.55L95.5996 89.0056L102.414 95.9242C102.915 96.4311 103.942 96.4311 104.694 95.9242L142.122 58.0615V62.1671C142.122 62.9274 142.873 63.713 143.65 63.713C144.426 63.713 145.178 62.9528 145.178 62.1671V54.2347C145.429 53.4744 144.927 52.9675 144.426 52.6888L144.376 52.6634Z" fill="#F9FAFB"/>
<path d="M89.2362 4.58594C90.4889 4.58594 91.516 5.62501 91.516 6.89217C91.516 8.15933 90.4889 9.1984 89.2362 9.1984C87.9836 9.1984 86.9565 8.15933 86.9565 6.89217C86.9565 5.62501 87.9836 4.58594 89.2362 4.58594Z" fill="#F9FAFB"/>
<path d="M117.57 52.4113C118.829 52.4113 119.85 51.3788 119.85 50.1051C119.85 48.8314 118.829 47.7988 117.57 47.7988C116.311 47.7988 115.291 48.8314 115.291 50.1051C115.291 51.3788 116.311 52.4113 117.57 52.4113Z" fill="#F9FAFB"/>
<path d="M136.535 129.4C137.787 129.4 138.815 130.439 138.815 131.707C138.815 132.974 137.787 134.013 136.535 134.013C135.282 134.013 134.255 132.974 134.255 131.707C134.255 130.439 135.282 129.4 136.535 129.4Z" fill="#F9FAFB"/>
<path d="M74.8312 129.4C76.0838 129.4 77.111 130.439 77.111 131.707C77.111 132.974 76.0838 134.013 74.8312 134.013C73.5786 134.013 72.5515 132.974 72.5515 131.707C72.5515 130.439 73.5786 129.4 74.8312 129.4Z" fill="#F9FAFB"/>
<path d="M66.9898 92.5791C68.2425 92.5791 69.2696 93.6182 69.2696 94.8853C69.2696 96.1525 68.2425 97.1916 66.9898 97.1916C65.7372 97.1916 64.7101 96.1525 64.7101 94.8853C64.7101 93.6182 65.7372 92.5791 66.9898 92.5791Z" fill="#F9FAFB"/>
<path d="M10.096 94.0988C11.3551 94.0988 12.3758 93.0663 12.3758 91.7926C12.3758 90.5189 11.3551 89.4863 10.096 89.4863C8.83697 89.4863 7.81628 90.5189 7.81628 91.7926C7.81628 93.0663 8.83697 94.0988 10.096 94.0988Z" fill="#F9FAFB"/>
<path d="M22.7474 143.492C24.0065 143.492 25.0272 142.46 25.0272 141.186C25.0272 139.912 24.0065 138.88 22.7474 138.88C21.4883 138.88 20.4677 139.912 20.4677 141.186C20.4677 142.46 21.4883 143.492 22.7474 143.492Z" fill="#F9FAFB"/>
</svg>
