<svg width="136" height="150" viewBox="0 0 136 150" fill="none" xmlns="http://www.w3.org/2000/svg">
<path d="M31.7972 117.466C31.7972 112.512 28.081 108.616 23.3557 108.616C18.6304 108.616 14.9142 112.512 14.9142 117.466C14.9142 122.419 18.6304 126.315 23.3557 126.315C28.081 126.315 31.7972 122.419 31.7972 117.466Z" fill="#F9FAFB"/>
<path d="M23.3557 129.438C14.9142 129.438 7.70319 136.739 7.70319 145.846V150H13.9051V143.498C13.9051 142.724 14.6435 141.925 15.4064 141.925C16.1693 141.925 16.9076 142.699 16.9076 143.498V150H29.3361V143.498C29.3361 142.724 30.0745 141.925 30.8374 141.925C31.6003 141.925 32.3387 142.699 32.3387 143.498V150H38.5406V145.846C38.7867 136.997 31.8464 129.438 23.3803 129.438H23.3557Z" fill="#F9FAFB"/>
<path d="M121.971 117.466C121.971 112.512 118.255 108.616 113.53 108.616C108.805 108.616 105.088 112.512 105.088 117.466C105.088 122.419 108.805 126.315 113.53 126.315C118.255 126.315 121.971 122.419 121.971 117.466Z" fill="#F9FAFB"/>
<path d="M113.284 129.438C104.842 129.438 97.6313 136.739 97.6313 145.846V150H103.833V143.498C103.833 142.724 104.572 141.925 105.334 141.925C106.097 141.925 106.836 142.699 106.836 143.498V150H119.264V143.498C119.264 142.724 120.003 141.925 120.766 141.925C121.528 141.925 122.267 142.699 122.267 143.498V150H128.469V145.846C128.961 136.997 122.021 129.438 113.308 129.438H113.284Z" fill="#F9FAFB"/>
<path d="M125.688 24.4856C129.921 24.4856 133.391 20.8479 133.391 16.4103C133.391 11.9727 129.921 8.33496 125.688 8.33496C121.455 8.33496 117.984 11.9727 117.984 16.4103C117.984 20.8479 121.455 24.4856 125.688 24.4856Z" fill="#F9FAFB"/>
<path d="M6.20194 22.9347C9.67207 22.9347 12.4039 20.071 12.4039 16.4332C12.4039 12.7954 9.67207 9.93164 6.20194 9.93164C2.73181 9.93164 0 12.7954 0 16.4332C0 20.071 2.73181 22.9347 6.20194 22.9347Z" fill="#F9FAFB"/>
<path d="M108.042 5.20996C109.272 5.20996 110.281 6.26775 110.281 7.55774C110.281 8.84773 109.272 9.90552 108.042 9.90552C106.811 9.90552 105.802 8.84773 105.802 7.55774C105.802 6.26775 106.811 5.20996 108.042 5.20996Z" fill="#F9FAFB"/>
<path d="M132.899 37.7695C134.129 37.7695 135.138 38.8273 135.138 40.1173C135.138 41.4073 134.129 42.4651 132.899 42.4651C131.668 42.4651 130.659 41.4073 130.659 40.1173C130.659 38.8273 131.668 37.7695 132.899 37.7695Z" fill="#F9FAFB"/>
<path d="M131.151 104.438C132.382 104.438 133.391 105.496 133.391 106.786C133.391 108.076 132.382 109.134 131.151 109.134C129.921 109.134 128.912 108.076 128.912 106.786C128.912 105.496 129.921 104.438 131.151 104.438Z" fill="#F9FAFB"/>
<path d="M90.9126 102.607C92.1495 102.607 93.1522 101.556 93.1522 100.259C93.1522 98.9623 92.1495 97.9111 90.9126 97.9111C89.6757 97.9111 88.673 98.9623 88.673 100.259C88.673 101.556 89.6757 102.607 90.9126 102.607Z" fill="#F9FAFB"/>
<path d="M50.4277 141.924C51.6582 141.924 52.6673 142.982 52.6673 144.272C52.6673 145.562 51.6582 146.619 50.4277 146.619C49.1972 146.619 48.1881 145.562 48.1881 144.272C48.1881 142.982 49.1972 141.924 50.4277 141.924Z" fill="#F9FAFB"/>
<path d="M47.4497 92.9824C48.6803 92.9824 49.6893 94.0402 49.6893 95.3302C49.6893 96.6202 48.6803 97.678 47.4497 97.678C46.2192 97.678 45.2101 96.6202 45.2101 95.3302C45.2101 94.0402 46.2192 92.9824 47.4497 92.9824Z" fill="#F9FAFB"/>
<path d="M6.94021 99.4824C8.17075 99.4824 9.1798 100.54 9.1798 101.83C9.1798 103.12 8.17075 104.178 6.94021 104.178C5.70967 104.178 4.70062 103.12 4.70062 101.83C4.70062 100.54 5.70967 99.4824 6.94021 99.4824Z" fill="#F9FAFB"/>
<path d="M2.48562 37.7695C3.71616 37.7695 4.72521 38.8273 4.72521 40.1173C4.72521 41.4073 3.71616 42.4651 2.48562 42.4651C1.25508 42.4651 0.246033 41.4073 0.246033 40.1173C0.246033 38.8273 1.25508 37.7695 2.48562 37.7695Z" fill="#F9FAFB"/>
<path d="M110.035 40.1187V38.5449C110.035 25.774 100.092 15.3767 87.9346 15.3767C83.4554 15.3767 79.247 16.6667 75.5061 19.2724C71.0269 7.55934 60.3458 0 48.188 0C28.3271 0 14.1512 20.3044 20.1071 40.0929C9.42595 41.6667 1.23053 51.29 1.23053 63.0031C1.23053 75.774 11.1733 86.1713 23.3311 86.1713H66.5478V120.537C62.5608 121.311 59.5829 124.432 58.8445 128.612H44.6933C43.955 128.612 43.1921 129.386 43.1921 130.186C43.1921 130.986 43.9304 131.76 44.6933 131.76H58.8445C59.5829 136.455 63.3237 139.835 68.0244 139.835C72.7251 139.835 76.4659 136.197 77.2043 131.76H91.3555C92.0938 131.76 92.8568 130.986 92.8568 130.186C92.8568 129.386 92.1184 128.612 91.3555 128.612H77.2043C76.4659 124.432 73.488 121.311 69.5011 120.537V86.4293H111.241C123.423 86.4293 133.342 76.0062 133.342 63.2611C133.588 49.9742 122.907 39.2931 109.986 40.0929L110.035 40.1187ZM100.855 61.9969C100.855 62.7709 100.117 63.5707 99.354 63.5707H66.8185C66.0801 63.5707 65.3172 62.7967 65.3172 61.9969C65.3172 61.1971 66.0555 60.4231 66.8185 60.4231H99.354C100.338 60.4231 100.855 61.1971 100.855 61.9969ZM88.4268 70.0722C88.4268 70.8462 87.6885 71.646 86.9255 71.646H32.5355C31.7972 71.646 31.0343 70.872 31.0343 70.0722C31.0343 69.2724 31.7726 68.4984 32.5355 68.4984H86.9255C87.91 68.4984 88.4268 69.2724 88.4268 70.0722ZM50.4276 9.90712C50.4276 10.6811 49.6893 11.4809 48.9264 11.4809C38.7375 11.4809 30.296 20.3302 30.296 31.0114C30.296 31.7853 29.5576 32.5851 28.7947 32.5851C28.0318 32.5851 27.2934 31.8111 27.2934 31.0114C27.2934 18.5243 36.9901 8.10114 49.1479 8.10114C49.6401 8.35914 50.3784 9.13313 50.3784 9.93292L50.4276 9.90712Z" fill="#F9FAFB"/>
</svg>
