<svg width="161" height="161" viewBox="0 0 161 161" fill="none" xmlns="http://www.w3.org/2000/svg">
<path d="M150.612 155.806V51.9355H155.806V10.3871H145.419V0H140.225V10.3871H129.838V2.59677H124.645V10.3871H105.475L100.281 0H60.7182L55.5247 10.3871H36.3548V2.59677H31.1613V10.3871H20.7742V0H15.5806V10.3871H5.19355V51.9355H10.3871V155.806H0V161H161V155.806H150.612ZM145.419 155.806H140.225V51.9355H145.419V155.806ZM33.1877 51.9355L37.0828 36.3548H59.7246V48.752C51.8358 54.9379 46.7407 64.5273 46.7407 75.3064V79.5008C46.7407 88.1977 45.1363 96.7021 41.9971 104.798C37.1825 106.698 33.7569 111.373 33.7569 116.855V119.452H51.9343V124.645H57.1278V119.452H67.777C68.985 125.37 74.2271 129.839 80.4988 129.839C86.7705 129.839 92.0127 125.37 93.2206 119.452H103.87V124.645H109.063V119.452H127.241V116.855C127.241 111.373 123.815 106.698 119.001 104.798C115.861 96.7009 114.257 88.1965 114.257 79.5008V75.3064C114.257 64.5276 109.162 54.9368 101.273 48.752V36.3548H123.915L127.81 51.9355H135.031V155.806H25.9666V51.9355H33.1877ZM39.3944 114.258C40.4667 111.236 43.3546 109.065 46.7407 109.065H114.257C117.643 109.065 120.531 111.236 121.603 114.258H39.3944ZM87.8101 119.452C86.7355 122.467 83.8791 124.645 80.4973 124.645C77.1168 124.645 74.2603 122.467 73.1845 119.452H87.8101ZM47.8732 103.871C50.4596 96.3379 51.8079 88.4954 51.9109 80.5H109.087C109.192 88.4954 110.539 96.3379 113.125 103.871H47.8732ZM52.4302 70.1129H108.568C108.88 71.8008 109.064 73.5305 109.064 75.3064H51.9352C51.9352 73.5304 52.1195 71.8009 52.4313 70.1129H52.4302ZM53.9175 64.9193C58.0851 54.2957 68.4156 46.7419 80.4984 46.7419C92.5813 46.7419 102.911 54.2957 107.079 64.9193H53.9175ZM70.1113 36.3548V43.2002C68.3087 43.7845 66.5744 44.5218 64.9178 45.3889V36.3548H70.1113ZM85.692 36.3548V41.99C83.9936 41.728 82.2699 41.5483 80.4984 41.5483C78.727 41.5483 77.0033 41.728 75.3049 41.99V36.3548H85.692ZM90.8855 43.2002V36.3548H96.0791V45.3889C94.4225 44.5218 92.6881 43.7845 90.8855 43.2002ZM92.4899 31.1613L100.28 15.5806H104.861L97.0704 31.1613H92.4899ZM86.6844 31.1613H74.3137L66.5234 15.5806H94.4748L86.6844 31.1613ZM60.7167 15.5806L68.507 31.1613H63.9266L56.1363 15.5806H60.7167ZM150.613 46.7419H131.866L127.971 31.1613H102.878L110.669 15.5806H150.611L150.613 46.7419ZM63.9278 5.19355H97.0715L99.6683 10.3871H61.331L63.9278 5.19355ZM10.3868 15.5806H50.3296L58.1199 31.1613H33.0274L29.1322 46.7419H10.3856L10.3868 15.5806ZM15.5803 51.9355H20.7739V155.806H15.5803V51.9355Z" fill="#6F2CFF"/>
</svg>
