<svg width="161" height="215" viewBox="0 0 161 215" fill="none" xmlns="http://www.w3.org/2000/svg">
<path d="M150.612 155.806V51.9355H155.806V10.3871H145.419V0H140.225V10.3871H129.838V2.59677H124.645V10.3871H105.475L100.281 0H60.7182L55.5247 10.3871H36.3548V2.59677H31.1613V10.3871H20.7742V0H15.5806V10.3871H5.19355V51.9355H10.3871V155.806H0V161H161V155.806H150.612ZM145.419 155.806H140.225V51.9355H145.419V155.806ZM33.1877 51.9355L37.0828 36.3548H59.7246V48.752C51.8358 54.9379 46.7407 64.5273 46.7407 75.3064V79.5008C46.7407 88.1977 45.1363 96.7021 41.9971 104.798C37.1825 106.698 33.7569 111.373 33.7569 116.855V119.452H51.9343V124.645H57.1278V119.452H67.777C68.985 125.37 74.2271 129.839 80.4988 129.839C86.7705 129.839 92.0127 125.37 93.2206 119.452H103.87V124.645H109.063V119.452H127.241V116.855C127.241 111.373 123.815 106.698 119.001 104.798C115.861 96.7009 114.257 88.1965 114.257 79.5008V75.3064C114.257 64.5276 109.162 54.9368 101.273 48.752V36.3548H123.915L127.81 51.9355H135.031V155.806H25.9666V51.9355H33.1877ZM39.3944 114.258C40.4667 111.236 43.3546 109.065 46.7407 109.065H114.257C117.643 109.065 120.531 111.236 121.603 114.258H39.3944ZM87.8101 119.452C86.7355 122.467 83.8791 124.645 80.4973 124.645C77.1168 124.645 74.2603 122.467 73.1845 119.452H87.8101ZM47.8732 103.871C50.4596 96.3379 51.8079 88.4954 51.9109 80.5H109.087C109.192 88.4954 110.539 96.3379 113.125 103.871H47.8732ZM52.4302 70.1129H108.568C108.88 71.8008 109.064 73.5305 109.064 75.3064H51.9352C51.9352 73.5304 52.1195 71.8009 52.4313 70.1129H52.4302ZM53.9175 64.9193C58.0851 54.2957 68.4156 46.7419 80.4984 46.7419C92.5813 46.7419 102.911 54.2957 107.079 64.9193H53.9175ZM70.1113 36.3548V43.2002C68.3087 43.7845 66.5744 44.5218 64.9178 45.3889V36.3548H70.1113ZM85.692 36.3548V41.99C83.9936 41.728 82.2699 41.5483 80.4984 41.5483C78.727 41.5483 77.0033 41.728 75.3049 41.99V36.3548H85.692ZM90.8855 43.2002V36.3548H96.0791V45.3889C94.4225 44.5218 92.6881 43.7845 90.8855 43.2002ZM92.4899 31.1613L100.28 15.5806H104.861L97.0704 31.1613H92.4899ZM86.6844 31.1613H74.3137L66.5234 15.5806H94.4748L86.6844 31.1613ZM60.7167 15.5806L68.507 31.1613H63.9266L56.1363 15.5806H60.7167ZM150.613 46.7419H131.866L127.971 31.1613H102.878L110.669 15.5806H150.611L150.613 46.7419ZM63.9278 5.19355H97.0715L99.6683 10.3871H61.331L63.9278 5.19355ZM10.3868 15.5806H50.3296L58.1199 31.1613H33.0274L29.1322 46.7419H10.3856L10.3868 15.5806ZM15.5803 51.9355H20.7739V155.806H15.5803V51.9355Z" fill="#6F2CFF"/>
<path d="M20.8129 207V180.818H25.5558V203.024H37.087V207H20.8129ZM40.9989 207V187.364H45.6268V207H40.9989ZM43.3256 184.577C42.5927 184.577 41.962 184.334 41.4336 183.848C40.9052 183.354 40.641 182.761 40.641 182.071C40.641 181.372 40.9052 180.78 41.4336 180.294C41.962 179.8 42.5927 179.553 43.3256 179.553C44.0671 179.553 44.6978 179.8 45.2177 180.294C45.7461 180.78 46.0103 181.372 46.0103 182.071C46.0103 182.761 45.7461 183.354 45.2177 183.848C44.6978 184.334 44.0671 184.577 43.3256 184.577ZM50.5902 207V180.818H55.218V190.611H55.4098C55.6484 190.134 55.9851 189.626 56.4197 189.089C56.8544 188.544 57.4425 188.08 58.1839 187.696C58.9254 187.304 59.8714 187.108 61.022 187.108C62.5391 187.108 63.907 187.496 65.1257 188.271C66.353 189.038 67.3246 190.176 68.0405 191.685C68.7649 193.185 69.1271 195.026 69.1271 197.207C69.1271 199.364 68.7734 201.196 68.0661 202.705C67.3587 204.213 66.3956 205.364 65.1768 206.156C63.9581 206.949 62.5774 207.345 61.0348 207.345C59.9098 207.345 58.9766 207.158 58.2351 206.783C57.4936 206.408 56.897 205.956 56.4453 205.428C56.0021 204.891 55.657 204.384 55.4098 203.906H55.1413V207H50.5902ZM55.1286 197.182C55.1286 198.452 55.3075 199.564 55.6655 200.518C56.032 201.473 56.5561 202.219 57.2379 202.756C57.9283 203.284 58.7635 203.548 59.7436 203.548C60.7663 203.548 61.6229 203.276 62.3132 202.73C63.0036 202.176 63.5234 201.422 63.8729 200.467C64.2308 199.504 64.4098 198.409 64.4098 197.182C64.4098 195.963 64.2351 194.881 63.8857 193.935C63.5362 192.989 63.0163 192.247 62.326 191.71C61.6357 191.173 60.7749 190.905 59.7436 190.905C58.755 190.905 57.9155 191.165 57.2251 191.685C56.5348 192.205 56.0107 192.933 55.6527 193.871C55.3033 194.808 55.1286 195.912 55.1286 197.182ZM81.7546 207.384C79.7859 207.384 78.0856 206.974 76.6538 206.156C75.2305 205.33 74.1353 204.162 73.3683 202.653C72.6012 201.136 72.2177 199.351 72.2177 197.297C72.2177 195.277 72.6012 193.504 73.3683 191.979C74.1438 190.445 75.2262 189.251 76.6154 188.399C78.0046 187.538 79.6367 187.108 81.5117 187.108C82.7219 187.108 83.864 187.304 84.9379 187.696C86.0202 188.08 86.9748 188.676 87.8015 189.486C88.6367 190.295 89.293 191.327 89.7702 192.58C90.2475 193.824 90.4862 195.307 90.4862 197.028V198.447H74.391V195.328H86.0501C86.0415 194.442 85.8498 193.653 85.4748 192.963C85.0998 192.264 84.5756 191.714 83.9023 191.314C83.2376 190.913 82.462 190.713 81.5756 190.713C80.6296 190.713 79.7987 190.943 79.0827 191.403C78.3668 191.855 77.8086 192.452 77.408 193.193C77.016 193.926 76.8157 194.732 76.8072 195.609V198.332C76.8072 199.474 77.016 200.455 77.4336 201.273C77.8512 202.082 78.435 202.705 79.185 203.139C79.935 203.565 80.8129 203.778 81.8185 203.778C82.4918 203.778 83.1012 203.685 83.6467 203.497C84.1921 203.301 84.6651 203.016 85.0657 202.641C85.4663 202.266 85.7688 201.801 85.9734 201.247L90.2944 201.733C90.0217 202.875 89.5018 203.872 88.7347 204.724C87.9762 205.568 87.0046 206.224 85.82 206.693C84.6353 207.153 83.2802 207.384 81.7546 207.384ZM94.4013 207V187.364H98.8885V190.636H99.093C99.451 189.503 100.065 188.629 100.934 188.016C101.812 187.393 102.813 187.082 103.938 187.082C104.194 187.082 104.479 187.095 104.795 187.121C105.119 187.138 105.387 187.168 105.6 187.21V191.467C105.404 191.399 105.093 191.339 104.667 191.288C104.249 191.229 103.844 191.199 103.452 191.199C102.609 191.199 101.85 191.382 101.177 191.749C100.512 192.107 99.9879 192.605 99.6044 193.244C99.2209 193.884 99.0291 194.621 99.0291 195.456V207H94.4013ZM119.535 187.364V190.943H108.246V187.364H119.535ZM111.033 182.659H115.661V201.094C115.661 201.716 115.755 202.193 115.942 202.526C116.138 202.849 116.394 203.071 116.71 203.19C117.025 203.31 117.374 203.369 117.758 203.369C118.048 203.369 118.312 203.348 118.55 203.305C118.798 203.263 118.985 203.224 119.113 203.19L119.893 206.808C119.646 206.893 119.292 206.987 118.832 207.089C118.38 207.192 117.826 207.251 117.17 207.268C116.011 207.303 114.967 207.128 114.038 206.744C113.109 206.352 112.371 205.747 111.826 204.929C111.289 204.111 111.025 203.088 111.033 201.861V182.659ZM126.282 214.364C125.651 214.364 125.067 214.313 124.53 214.21C124.002 214.116 123.58 214.006 123.265 213.878L124.338 210.273C125.012 210.469 125.613 210.563 126.141 210.554C126.669 210.545 127.134 210.379 127.534 210.055C127.944 209.74 128.289 209.212 128.57 208.47L128.966 207.409L121.846 187.364H126.755L131.28 202.193H131.485L136.023 187.364H140.945L133.083 209.378C132.716 210.418 132.23 211.308 131.625 212.05C131.02 212.8 130.279 213.371 129.401 213.763C128.532 214.163 127.492 214.364 126.282 214.364Z" fill="#6F2CFF"/>
</svg>
