<svg width="81" height="80" viewBox="0 0 81 80" fill="none" xmlns="http://www.w3.org/2000/svg">
<path d="M49.6406 30.8594C47.9219 29.2969 46.0469 27.8906 44.0156 26.7969C43.2344 26.4844 42.4531 26.4844 41.8281 27.1094L41.2031 27.7344C39.7969 29.1406 39.0156 30.7031 38.8594 32.5781C38.7031 33.5156 39.0156 34.1406 39.9531 34.4531C41.2031 35.0781 42.4531 36.0156 43.5469 36.9531C46.0469 39.6094 47.2969 42.7344 47.2969 46.3281C47.2969 50.0781 46.0469 53.0469 43.5469 55.5469L31.6719 67.2656C29.1719 69.9219 26.0469 71.1719 22.4531 71.1719C18.7031 71.1719 15.5781 69.9219 13.0781 67.4219C10.5781 64.9219 9.32812 61.7969 9.32812 58.0469C9.32812 54.4531 10.5781 51.3281 13.2344 48.8281L20.2656 41.6406C20.7344 41.1719 20.8906 40.5469 20.8906 39.9219C20.2656 38.0469 20.1094 36.0156 20.1094 33.9844C20.1094 33.2031 19.6406 32.5781 18.8594 32.2656C18.0781 31.9531 17.4531 32.1094 16.8281 32.7344L6.98438 42.5781C4.17188 45.3906 2.14062 48.6719 1.20312 52.4219C0.265625 56.1719 0.265625 59.9219 1.20312 63.6719C2.14062 67.4219 4.17188 70.7031 6.98438 73.5156C9.79688 76.3281 13.0781 78.3594 16.8281 79.2969C20.5781 80.2344 24.3281 80.2344 28.0781 79.2969C31.8281 78.3594 35.1094 76.3281 37.9219 73.5156L44.4844 66.9531C48.3906 63.0469 50.5781 60.7031 51.2031 60.0781C53.3906 57.2656 54.9531 54.1406 55.5781 50.5469C56.2031 47.1094 56.0469 43.5156 55.1094 40.0781C54.0156 36.6406 52.1406 33.5156 49.6406 30.8594ZM74.1719 6.32812C76.9844 9.14062 78.8594 12.4219 79.7969 16.1719C80.7344 19.9219 80.7344 23.6719 79.7969 27.4219C78.8594 31.1719 76.9844 34.4531 74.1719 37.2656L64.3281 47.1094C63.7031 47.7344 62.9219 47.8906 62.1406 47.5781C61.3594 47.2656 61.0469 46.7969 61.0469 45.8594C61.0469 43.9844 60.7344 41.9531 60.2656 39.9219C60.1094 39.2969 60.2656 38.8281 60.8906 38.2031L67.9219 31.0156C70.4219 28.5156 71.8281 25.5469 71.8281 21.7969C71.8281 18.2031 70.4219 15.0781 67.9219 12.5781C65.4219 10.0781 62.2969 8.67188 58.7031 8.67188C54.9531 8.67188 51.9844 10.0781 49.4844 12.5781L37.6094 24.2969C35.1094 26.7969 33.8594 29.9219 33.8594 33.5156C33.8594 37.2656 35.1094 40.3906 37.6094 42.8906C38.5469 43.9844 39.7969 44.7656 41.2031 45.3906C41.9844 45.8594 42.2969 46.4844 42.2969 47.2656C41.9844 49.1406 41.2031 50.8594 39.9531 52.1094L39.3281 52.7344C38.5469 53.3594 37.7656 53.5156 37.1406 53.0469C34.9531 52.1094 33.0781 50.7031 31.5156 48.9844C28.8594 46.4844 26.9844 43.3594 26.0469 39.9219C24.9531 36.4844 24.7969 32.8906 25.4219 29.2969C26.0469 25.8594 27.6094 22.5781 29.9531 19.7656C30.4219 19.1406 32.6094 16.9531 36.6719 12.8906L43.2344 6.32812C46.0469 3.51562 49.3281 1.64062 53.0781 0.703125C56.8281 -0.234375 60.5781 -0.234375 64.3281 0.703125C68.0781 1.64062 71.3594 3.51562 74.1719 6.32812Z" fill="#8F8F8F"/>
</svg>
