<svg width="71" height="70" viewBox="0 0 71 70" fill="none" xmlns="http://www.w3.org/2000/svg">
<path d="M65.5 0H5.5C4.14583 0 2.94792 0.520833 1.90625 1.5625C0.96875 2.5 0.5 3.64583 0.5 5V65C0.5 66.3542 0.96875 67.5 1.90625 68.4375C2.94792 69.4792 4.14583 70 5.5 70H65.5C66.8542 70 68 69.4792 68.9375 68.4375C69.9792 67.5 70.5 66.3542 70.5 65V5C70.5 3.64583 69.9792 2.5 68.9375 1.5625C68 0.520833 66.8542 0 65.5 0ZM21.5938 60H11.2812V26.5625H21.75V60H21.5938ZM16.4375 22.0312C14.7708 22.0312 13.3646 21.4583 12.2188 20.3125C11.0729 19.0625 10.5 17.6562 10.5 16.0938C10.5 14.4271 11.0729 13.0208 12.2188 11.875C13.3646 10.625 14.7708 10 16.4375 10C18.1042 10 19.5104 10.625 20.6562 11.875C21.9062 13.0208 22.5312 14.4271 22.5312 16.0938C22.5312 17.6562 21.9062 19.0625 20.6562 20.3125C19.5104 21.4583 18.1042 22.0312 16.4375 22.0312ZM60.5 60H50.1875V43.75C50.1875 41.0417 49.9271 39.0625 49.4062 37.8125C48.6771 35.8333 47.1146 34.8438 44.7188 34.8438C42.3229 34.8438 40.6042 35.7292 39.5625 37.5C38.8333 38.8542 38.4688 40.8333 38.4688 43.4375V60H28.1562V26.5625H38.1562V31.0938H38.3125C39.0417 29.6354 40.1875 28.4375 41.75 27.5C43.625 26.3542 45.7604 25.7812 48.1562 25.7812C52.9479 25.7812 56.3333 27.2917 58.3125 30.3125C59.7708 32.7083 60.5 36.5104 60.5 41.7188V60Z" fill="#8F8F8F"/>
</svg>
