<svg width="19" height="16" viewBox="0 0 19 16" fill="none" xmlns="http://www.w3.org/2000/svg">
<path d="M16.1562 1.125C16.4688 1 16.7812 0.96875 17.0938 1.0625C17.4062 1.15625 17.6875 1.34375 17.9062 1.59375C18.125 1.84375 18.25 2.15625 18.25 2.5V11.5C18.25 11.8125 18.1562 12.0625 18 12.3125C17.8125 12.5625 17.5938 12.75 17.3438 12.875L12.8438 14.875C12.4688 15.0312 12.125 15.0625 11.7812 14.9375L6.3125 13.0938L2.34375 14.875C2.03125 15.0312 1.6875 15.0625 1.375 14.9688C1.0625 14.875 0.78125 14.6875 0.5625 14.4375C0.34375 14.1875 0.25 13.875 0.25 13.5V4.5C0.25 4.21875 0.3125 3.9375 0.5 3.6875C0.65625 3.4375 0.875 3.25 1.15625 3.125L5.65625 1.125C6 1 6.34375 0.96875 6.71875 1.0625L12.1875 2.90625L16.1562 1.125ZM11.5 13.25V4.25L7 2.75V11.75L11.5 13.25ZM1.75 13.5L5.5 11.8438V2.84375L1.75 4.5V13.5ZM16.75 11.5V2.5L13 4.15625V13.1562L16.75 11.5Z" fill="#8F8F8F"/>
</svg>
