<svg width="17" height="14" viewBox="0 0 17 14" fill="none" xmlns="http://www.w3.org/2000/svg">
<path d="M6.5 6C7.29565 6 8.05871 5.68393 8.62132 5.12132C9.18393 4.55871 9.5 3.79565 9.5 3C9.5 2.20435 9.18393 1.44129 8.62132 0.87868C8.05871 0.316071 7.29565 0 6.5 0C5.70435 0 4.94129 0.316071 4.37868 0.87868C3.81607 1.44129 3.5 2.20435 3.5 3C3.5 3.79565 3.81607 4.55871 4.37868 5.12132C4.94129 5.68393 5.70435 6 6.5 6ZM6.5 8C8.0913 8 9.61742 8.63214 10.7426 9.75736C11.8679 10.8826 12.5 12.4087 12.5 14H0.5C0.5 12.4087 1.13214 10.8826 2.25736 9.75736C3.38258 8.63214 4.9087 8 6.5 8ZM14.5 4C14.5 3.73478 14.3946 3.48043 14.2071 3.29289C14.0196 3.10536 13.7652 3 13.5 3C13.2348 3 12.9804 3.10536 12.7929 3.29289C12.6054 3.48043 12.5 3.73478 12.5 4V5H11.5C11.2348 5 10.9804 5.10536 10.7929 5.29289C10.6054 5.48043 10.5 5.73478 10.5 6C10.5 6.26522 10.6054 6.51957 10.7929 6.70711C10.9804 6.89464 11.2348 7 11.5 7H12.5V8C12.5 8.26522 12.6054 8.51957 12.7929 8.70711C12.9804 8.89464 13.2348 9 13.5 9C13.7652 9 14.0196 8.89464 14.2071 8.70711C14.3946 8.51957 14.5 8.26522 14.5 8V7H15.5C15.7652 7 16.0196 6.89464 16.2071 6.70711C16.3946 6.51957 16.5 6.26522 16.5 6C16.5 5.73478 16.3946 5.48043 16.2071 5.29289C16.0196 5.10536 15.7652 5 15.5 5H14.5V4Z" fill="white"/>
</svg>
