<svg width="16" height="16" viewBox="0 0 16 16" fill="none" xmlns="http://www.w3.org/2000/svg">
<path d="M8.25 1.75C7.125 1.75 6.0625 2.03125 5.125 2.59375C4.15625 3.15625 3.40625 3.9375 2.84375 4.875C2.28125 5.84375 2 6.875 2 8C2 9.125 2.28125 10.1875 2.84375 11.125C3.40625 12.0938 4.15625 12.8438 5.125 13.4062C6.0625 13.9688 7.125 14.25 8.25 14.25C9.375 14.25 10.4062 13.9688 11.375 13.4062C12.3125 12.8438 13.0938 12.0938 13.6562 11.125C14.2188 10.1875 14.5 9.125 14.5 8C14.5 6.875 14.2188 5.84375 13.6562 4.875C13.0938 3.9375 12.3125 3.15625 11.375 2.59375C10.4062 2.03125 9.375 1.75 8.25 1.75ZM8.25 0.25C9.625 0.25 10.9375 0.625 12.125 1.3125C13.3125 2 14.25 2.9375 14.9375 4.125C15.625 5.3125 16 6.625 16 8C16 9.40625 15.625 10.6875 14.9375 11.875C14.25 13.0625 13.3125 14.0312 12.125 14.7188C10.9375 15.4062 9.625 15.75 8.25 15.75C6.84375 15.75 5.5625 15.4062 4.375 14.7188C3.1875 14.0312 2.21875 13.0625 1.53125 11.875C0.84375 10.6875 0.5 9.40625 0.5 8C0.5 6.625 0.84375 5.3125 1.53125 4.125C2.21875 2.9375 3.1875 2 4.375 1.3125C5.5625 0.625 6.84375 0.25 8.25 0.25ZM8.25 4.75C7.65625 4.75 7.125 4.90625 6.625 5.1875C6.125 5.5 5.71875 5.875 5.4375 6.375C5.125 6.875 5 7.4375 5 8C5 8.59375 5.125 9.125 5.4375 9.625C5.71875 10.125 6.125 10.5312 6.625 10.8125C7.125 11.125 7.65625 11.25 8.25 11.25C8.8125 11.25 9.375 11.125 9.875 10.8125C10.375 10.5312 10.75 10.125 11.0625 9.625C11.3438 9.125 11.5 8.59375 11.5 8C11.5 7.4375 11.3438 6.875 11.0625 6.375C10.75 5.875 10.375 5.5 9.875 5.1875C9.375 4.90625 8.8125 4.75 8.25 4.75ZM8.25 3.25C9.09375 3.25 9.875 3.46875 10.625 3.90625C11.3438 4.34375 11.9062 4.90625 12.3438 5.625C12.7812 6.375 13 7.15625 13 8C13 8.875 12.7812 9.65625 12.3438 10.375C11.9062 11.125 11.3438 11.6875 10.625 12.125C9.875 12.5625 9.09375 12.75 8.25 12.75C7.375 12.75 6.59375 12.5625 5.875 12.125C5.125 11.6875 4.5625 11.125 4.125 10.375C3.6875 9.65625 3.5 8.875 3.5 8C3.5 7.15625 3.6875 6.375 4.125 5.625C4.5625 4.90625 5.125 4.34375 5.875 3.90625C6.59375 3.46875 7.375 3.25 8.25 3.25ZM8.25 6.25C8.71875 6.25 9.125 6.4375 9.46875 6.78125C9.8125 7.125 10 7.53125 10 8C10 8.5 9.8125 8.90625 9.46875 9.25C9.125 9.59375 8.71875 9.75 8.25 9.75C7.75 9.75 7.34375 9.59375 7 9.25C6.65625 8.90625 6.5 8.5 6.5 8C6.5 7.53125 6.65625 7.125 7 6.78125C7.34375 6.4375 7.75 6.25 8.25 6.25Z" fill="#8F8F8F"/>
</svg>
