<svg width="37" height="37" viewBox="0 0 37 37" fill="none" xmlns="http://www.w3.org/2000/svg">
<path d="M21.2205 21.2996C22.065 20.4551 22.5395 19.3096 22.5395 18.1153C22.5395 16.9209 22.065 15.7754 21.2205 14.9309C20.3759 14.0863 19.2305 13.6119 18.0361 13.6119C16.8417 13.6119 15.6963 14.0863 14.8517 14.9309C14.0072 15.7754 13.5327 16.9209 13.5327 18.1153C13.5327 19.3096 14.0072 20.4551 14.8517 21.2996C15.6963 22.1442 16.8417 22.6187 18.0361 22.6187C19.2305 22.6187 20.3759 22.1442 21.2205 21.2996Z" stroke="#921A64" stroke-width="2.00151" stroke-linecap="round" stroke-linejoin="round"/>
<path d="M3.7124 18.1153C5.62484 12.0252 11.3156 7.60736 18.0362 7.60736C24.7582 7.60736 30.4475 12.0252 32.36 18.1153C30.4475 24.2054 24.7582 28.6232 18.0362 28.6232C11.3156 28.6232 5.62484 24.2054 3.7124 18.1153Z" stroke="#921A64" stroke-width="2.00151" stroke-linecap="round" stroke-linejoin="round"/>
</svg>
