<svg width="102" height="121" viewBox="0 0 102 121" fill="none" xmlns="http://www.w3.org/2000/svg">
<path d="M50.3273 0.00530317C50.0992 0.0181435 49.872 0.0537022 49.6498 0.110001L2.66891 12.0021C1.10139 12.4002 0.00404571 13.8087 0 15.4245V69.8318C0 84.9775 12.8583 97.2264 24.953 105.973C37.0476 114.717 49.076 120.057 49.076 120.057C49.9907 120.464 51.0367 120.464 51.9523 120.057C51.9523 120.057 64.0014 114.717 76.0961 105.973C88.1908 97.2284 101.049 84.9787 101.049 69.8318L101.048 15.4245C101.045 13.8106 99.9507 12.4032 98.3862 12.0021L51.3978 0.110001C51.0481 0.0211064 50.6866 -0.0144526 50.3261 0.00530317H50.3273ZM50.514 7.18898L93.9701 18.1893V69.8303C93.9701 80.7161 83.3412 91.976 71.9419 100.219C61.2587 107.943 51.821 112.165 50.5153 112.761C49.2085 112.164 39.7926 107.943 29.1094 100.219C17.7101 91.977 7.08126 80.7171 7.08126 69.8303V18.1893L50.514 7.18898ZM50.514 17.2006C41.4438 17.2006 34.0518 24.5926 34.0518 33.6629V42.0013H28.7693C28.6567 41.9964 28.5441 41.9964 28.4305 42.0013C26.62 42.1831 25.2423 43.7081 25.2433 45.5274V78.6113C25.2364 80.567 26.8147 82.1581 28.7694 82.1652H72.2507C73.195 82.1691 74.1007 81.7958 74.7684 81.129C75.4351 80.4613 75.8085 79.5556 75.8045 78.6113V45.5275C75.7976 43.5728 74.2064 41.9943 72.2506 42.0014H67.0028V33.6629C67.0028 24.5927 59.583 17.2007 50.5127 17.2007L50.514 17.2006ZM50.514 24.2806C55.7846 24.2806 59.9173 28.3926 59.9173 33.6629V41.9735H41.1042V33.6629C41.1042 28.3923 45.2437 24.2806 50.5143 24.2806H50.514ZM32.3232 49.0538H68.7245V75.0778H32.3232V49.0538Z" fill="#6F2CFF"/>
</svg>
