<svg width="177" height="215" viewBox="0 0 177 215" fill="none" xmlns="http://www.w3.org/2000/svg">
<path d="M87.3273 29.0053C87.0992 29.0181 86.872 29.0537 86.6498 29.11L39.6689 41.0021C38.1014 41.4002 37.004 42.8087 37 44.4245V98.8318C37 113.977 49.8583 126.226 61.953 134.973C74.0476 143.717 86.076 149.057 86.076 149.057C86.9907 149.464 88.0367 149.464 88.9523 149.057C88.9523 149.057 101.001 143.717 113.096 134.973C125.191 126.228 138.049 113.979 138.049 98.8318L138.048 44.4245C138.045 42.8106 136.951 41.4032 135.386 41.0021L88.3978 29.11C88.0481 29.0211 87.6866 28.9855 87.3261 29.0053H87.3273ZM87.514 36.189L130.97 47.1893V98.8303C130.97 109.716 120.341 120.976 108.942 129.219C98.2587 136.943 88.821 141.165 87.5153 141.761C86.2085 141.164 76.7926 136.943 66.1094 129.219C54.7101 120.977 44.0813 109.717 44.0813 98.8303V47.1893L87.514 36.189ZM87.514 46.2006C78.4438 46.2006 71.0518 53.5926 71.0518 62.6629V71.0013H65.7693C65.6567 70.9964 65.5441 70.9964 65.4305 71.0013C63.62 71.1831 62.2423 72.7081 62.2433 74.5274V107.611C62.2364 109.567 63.8147 111.158 65.7694 111.165H109.251C110.195 111.169 111.101 110.796 111.768 110.129C112.435 109.461 112.808 108.556 112.805 107.611V74.5275C112.798 72.5728 111.206 70.9943 109.251 71.0014H104.003V62.6629C104.003 53.5927 96.583 46.2007 87.5127 46.2007L87.514 46.2006ZM87.514 53.2806C92.7846 53.2806 96.9173 57.3926 96.9173 62.6629V70.9735H78.1042V62.6629C78.1042 57.3923 82.2437 53.2806 87.5143 53.2806H87.514ZM69.3232 78.0538H105.725V104.078H69.3232V78.0538Z" fill="#6F2CFF"/>
<path d="M25.9828 207V180.818H35.801C37.8123 180.818 39.4998 181.193 40.8635 181.943C42.2356 182.693 43.2711 183.724 43.97 185.037C44.6774 186.341 45.0311 187.824 45.0311 189.486C45.0311 191.165 44.6774 192.656 43.97 193.96C43.2626 195.264 42.2186 196.291 40.8379 197.041C39.4572 197.783 37.7569 198.153 35.737 198.153H29.2299V194.254H35.0978C36.274 194.254 37.237 194.05 37.987 193.641C38.737 193.232 39.291 192.669 39.649 191.953C40.0154 191.237 40.1987 190.415 40.1987 189.486C40.1987 188.557 40.0154 187.739 39.649 187.031C39.291 186.324 38.7328 185.774 37.9743 185.382C37.2243 184.982 36.2569 184.781 35.0723 184.781H30.7257V207H25.9828ZM48.9462 207V187.364H53.4334V190.636H53.638C53.9959 189.503 54.6096 188.629 55.4789 188.016C56.3567 187.393 57.3581 187.082 58.4831 187.082C58.7388 187.082 59.0243 187.095 59.3397 187.121C59.6635 187.138 59.932 187.168 60.1451 187.21V191.467C59.949 191.399 59.638 191.339 59.2118 191.288C58.7942 191.229 58.3894 191.199 57.9973 191.199C57.1536 191.199 56.3951 191.382 55.7218 191.749C55.057 192.107 54.5328 192.605 54.1493 193.244C53.7658 193.884 53.574 194.621 53.574 195.456V207H48.9462ZM63.2196 207V187.364H67.8475V207H63.2196ZM65.5463 184.577C64.8134 184.577 64.1827 184.334 63.6543 183.848C63.1259 183.354 62.8617 182.761 62.8617 182.071C62.8617 181.372 63.1259 180.78 63.6543 180.294C64.1827 179.8 64.8134 179.553 65.5463 179.553C66.2878 179.553 66.9185 179.8 67.4384 180.294C67.9668 180.78 68.231 181.372 68.231 182.071C68.231 182.761 67.9668 183.354 67.4384 183.848C66.9185 184.334 66.2878 184.577 65.5463 184.577ZM90.1461 187.364L83.1532 207H78.0396L71.0467 187.364H75.9814L80.4941 201.95H80.6987L85.2243 187.364H90.1461ZM98.4366 207.396C97.1923 207.396 96.0716 207.175 95.0744 206.732C94.0858 206.28 93.3017 205.615 92.7221 204.737C92.1511 203.859 91.8656 202.777 91.8656 201.49C91.8656 200.382 92.0701 199.466 92.4792 198.741C92.8883 198.017 93.4466 197.438 94.1539 197.003C94.8613 196.568 95.6582 196.24 96.5446 196.018C97.4395 195.788 98.3642 195.622 99.3187 195.52C100.469 195.401 101.403 195.294 102.118 195.2C102.834 195.098 103.354 194.945 103.678 194.74C104.01 194.527 104.177 194.199 104.177 193.756V193.679C104.177 192.716 103.891 191.97 103.32 191.442C102.749 190.913 101.927 190.649 100.853 190.649C99.7193 190.649 98.8201 190.896 98.1554 191.391C97.4991 191.885 97.0559 192.469 96.8258 193.142L92.5048 192.528C92.8457 191.335 93.4082 190.338 94.1923 189.537C94.9764 188.727 95.9352 188.122 97.0687 187.722C98.2022 187.312 99.4551 187.108 100.827 187.108C101.773 187.108 102.715 187.219 103.653 187.44C104.59 187.662 105.447 188.028 106.222 188.54C106.998 189.043 107.62 189.729 108.089 190.598C108.566 191.467 108.805 192.554 108.805 193.858V207H104.356V204.303H104.202C103.921 204.848 103.525 205.359 103.013 205.837C102.51 206.305 101.876 206.685 101.108 206.974C100.35 207.256 99.4593 207.396 98.4366 207.396ZM99.6383 203.996C100.567 203.996 101.373 203.812 102.055 203.446C102.736 203.071 103.26 202.577 103.627 201.963C104.002 201.349 104.189 200.68 104.189 199.956V197.642C104.045 197.761 103.797 197.872 103.448 197.974C103.107 198.077 102.724 198.166 102.297 198.243C101.871 198.32 101.449 198.388 101.032 198.447C100.614 198.507 100.252 198.558 99.9451 198.601C99.2548 198.695 98.6369 198.848 98.0914 199.061C97.546 199.274 97.1156 199.572 96.8002 199.956C96.4849 200.331 96.3272 200.817 96.3272 201.413C96.3272 202.266 96.6383 202.909 97.2605 203.344C97.8826 203.778 98.6752 203.996 99.6383 203.996ZM122.023 207.384C120.063 207.384 118.38 206.953 116.974 206.092C115.576 205.232 114.498 204.043 113.739 202.526C112.989 201 112.614 199.244 112.614 197.259C112.614 195.264 112.998 193.504 113.765 191.979C114.532 190.445 115.614 189.251 117.012 188.399C118.418 187.538 120.08 187.108 121.998 187.108C123.591 187.108 125.002 187.402 126.229 187.99C127.465 188.57 128.449 189.392 129.182 190.457C129.915 191.514 130.333 192.75 130.435 194.165H126.012C125.833 193.219 125.407 192.43 124.733 191.8C124.069 191.161 123.178 190.841 122.062 190.841C121.116 190.841 120.285 191.097 119.569 191.608C118.853 192.111 118.295 192.835 117.894 193.781C117.502 194.727 117.306 195.861 117.306 197.182C117.306 198.52 117.502 199.67 117.894 200.634C118.286 201.588 118.836 202.325 119.543 202.845C120.259 203.357 121.099 203.612 122.062 203.612C122.743 203.612 123.353 203.484 123.89 203.229C124.435 202.964 124.891 202.585 125.258 202.091C125.624 201.597 125.876 200.996 126.012 200.288H130.435C130.324 201.678 129.915 202.909 129.208 203.983C128.501 205.048 127.537 205.884 126.319 206.489C125.1 207.085 123.668 207.384 122.023 207.384ZM137.112 214.364C136.481 214.364 135.897 214.313 135.36 214.21C134.832 214.116 134.41 214.006 134.095 213.878L135.169 210.273C135.842 210.469 136.443 210.563 136.971 210.554C137.499 210.545 137.964 210.379 138.365 210.055C138.774 209.74 139.119 209.212 139.4 208.47L139.796 207.409L132.676 187.364H137.585L142.11 202.193H142.315L146.853 187.364H151.775L143.913 209.378C143.546 210.418 143.061 211.308 142.455 212.05C141.85 212.8 141.109 213.371 140.231 213.763C139.362 214.163 138.322 214.364 137.112 214.364Z" fill="#6F2CFF"/>
</svg>
