<svg width="265" height="37" viewBox="0 0 265 37" fill="none" xmlns="http://www.w3.org/2000/svg">
<path d="M12.6956 21.6H10.9676V29.424C10.9676 34.848 14.5676 35.184 16.6316 35.184V36H0.839563V35.184C2.85556 35.184 4.00756 32.688 4.00756 29.424V8.544C4.00756 5.568 2.66356 3.024 0.551563 3.024V2.208H12.6956C22.2476 2.208 29.0156 3.888 29.0156 11.904C29.0156 19.92 22.2476 21.6 12.6956 21.6ZM10.9676 3.024V20.784H12.6956C17.3996 20.784 21.1436 20.4 21.1436 11.904C21.1436 3.36 17.3996 3.024 12.6956 3.024H10.9676ZM45.4012 13.632C46.4092 13.2 48.2332 13.392 49.2892 14.256C50.7772 15.552 50.9212 17.856 49.6252 19.296C48.3292 20.784 46.1212 20.976 44.5852 19.68C43.8652 19.008 43.4812 18.192 43.4812 17.328C43.4812 16.8 41.5132 17.28 39.7372 20.16V30.144C39.7372 32.832 39.9772 34.704 41.7052 35.184V36H31.7692V35.184C33.6412 34.608 33.6892 32.64 33.6892 30.144V19.488C33.6892 17.856 33.2572 17.136 31.2892 16.128V15.312L39.7372 13.392V18.816C42.2812 14.832 44.2492 14.112 45.4012 13.632ZM64.3998 13.392C71.7438 13.392 75.8238 18.576 75.8238 24.912C75.8238 31.2 71.7438 36.432 64.3998 36.432C57.1038 36.432 52.9758 31.2 52.9758 24.912C52.9758 18.576 57.1038 13.392 64.3998 13.392ZM64.3998 35.616C67.8558 35.616 68.7198 33.6 68.7198 24.912C68.7198 16.224 67.8558 14.208 64.3998 14.208C60.9438 14.208 60.0318 16.224 60.0318 24.912C60.0318 33.6 60.9438 35.616 64.3998 35.616ZM95.3917 2.64C95.9677 3.504 96.1117 4.896 95.6317 5.904C94.9117 7.296 93.1837 7.872 91.7917 7.2C90.3517 6.48 89.7757 4.8 90.4957 3.36C90.8317 2.64 91.4557 2.208 92.1757 2.064C92.8957 1.968 92.1757 1.056 90.3997 1.056C88.5277 1.056 87.3757 3.888 87.3757 13.824H92.5117L92.3677 14.64H87.3757V30.576C87.3757 33.216 87.6157 34.704 89.3437 35.184V36H79.5037V35.184C81.3277 34.656 81.3757 33.024 81.3757 30.576V14.64H78.3037L78.2557 13.824H81.3757C81.3757 2.736 84.4957 0.239997 90.3037 0.239997C92.9437 0.239997 94.9117 1.824 95.3917 2.64ZM101.631 23.664H111.039C111.039 17.616 109.071 14.208 106.431 14.208C103.599 14.208 101.631 19.056 101.631 23.664ZM106.671 13.392C113.631 13.392 116.895 16.992 116.895 24.48H101.631C102.015 29.184 104.415 31.632 107.631 32.352C110.223 32.928 114.063 31.968 115.263 29.712L116.079 30.144C115.311 32.64 112.479 36.432 106.047 36.432C99.7589 36.432 95.4389 30.624 95.4389 25.008C95.4389 18.24 100.047 13.392 106.671 13.392ZM133.427 23.568C137.699 26.208 139.139 30.384 136.739 33.84C136.739 33.84 134.915 36.432 130.019 36.432C124.211 36.432 121.331 34.224 121.331 34.224V28.176H122.147C122.867 30.048 124.403 35.616 130.019 35.616C133.427 35.616 134.003 31.296 130.355 28.896L125.507 25.968C120.851 23.136 119.603 19.248 122.243 15.792C122.243 15.792 124.067 13.392 128.867 13.392C134.387 13.392 136.787 14.832 136.787 14.832V20.208H135.971C135.347 18.528 133.811 14.208 128.867 14.208C125.747 14.208 124.403 17.904 128.579 20.544L133.427 23.568ZM154.755 23.568C159.027 26.208 160.467 30.384 158.067 33.84C158.067 33.84 156.243 36.432 151.347 36.432C145.539 36.432 142.659 34.224 142.659 34.224V28.176H143.475C144.195 30.048 145.731 35.616 151.347 35.616C154.755 35.616 155.331 31.296 151.683 28.896L146.835 25.968C142.179 23.136 140.931 19.248 143.571 15.792C143.571 15.792 145.395 13.392 150.195 13.392C155.715 13.392 158.115 14.832 158.115 14.832V20.208H157.299C156.675 18.528 155.139 14.208 150.195 14.208C147.075 14.208 145.731 17.904 149.907 20.544L154.755 23.568ZM171.139 6.288C171.139 8.112 169.651 9.552 167.827 9.552C166.003 9.552 164.563 8.112 164.563 6.288C164.563 4.464 166.003 3.024 167.827 3.024C169.651 3.024 171.139 4.464 171.139 6.288ZM171.283 30.144C171.283 32.832 171.523 34.704 173.251 35.184V36H163.411V35.184C165.235 34.608 165.331 32.592 165.331 30.144V19.488C165.331 17.856 164.851 17.184 162.883 16.128V15.312L171.283 13.392V30.144ZM188.478 13.392C195.822 13.392 199.902 18.576 199.902 24.912C199.902 31.2 195.822 36.432 188.478 36.432C181.182 36.432 177.054 31.2 177.054 24.912C177.054 18.576 181.182 13.392 188.478 13.392ZM188.478 35.616C191.934 35.616 192.798 33.6 192.798 24.912C192.798 16.224 191.934 14.208 188.478 14.208C185.022 14.208 184.11 16.224 184.11 24.912C184.11 33.6 185.022 35.616 188.478 35.616ZM224.606 30.144C224.606 32.784 224.846 34.752 226.574 35.184V36H216.686V35.184C218.51 34.656 218.606 32.592 218.606 30.144V20.832C218.606 18.528 217.118 16.848 214.718 16.848C212.846 16.848 210.638 18.864 210.638 20.784V30.24C210.638 32.88 210.926 34.704 212.606 35.184V36H202.766V35.184C204.59 34.656 204.638 32.688 204.638 30.24V19.392C204.638 17.712 204.206 17.184 202.238 16.128V15.312L210.638 13.392V18.528C211.742 15.6 215.534 13.392 218.558 13.392C222.302 13.392 224.606 14.88 224.606 20.688V30.144ZM242.033 31.056C242.033 30.96 242.033 24.576 242.033 24.576C237.329 25.632 235.745 27.888 235.745 30.336C235.745 30.336 235.745 33.504 238.865 33.504C240.497 33.504 241.601 32.208 242.033 31.056ZM250.385 33.504C250.385 33.504 251.393 33.504 251.681 32.688L252.497 33.024C252.113 34.56 249.905 36.432 246.881 36.432C246.881 36.432 242.609 36.432 242.081 32.544C241.361 34.656 238.529 36.432 235.121 36.432C235.121 36.432 229.601 36.432 229.601 31.536C229.601 26.304 233.633 25.824 242.033 23.712V20.736C242.033 15.744 239.249 13.248 235.937 14.976C234.401 15.744 234.209 16.56 234.545 16.608C235.265 16.704 235.889 17.04 236.321 17.664C237.185 18.912 236.849 20.592 235.601 21.456C234.353 22.272 232.673 21.984 231.809 20.736C231.233 19.824 231.185 18.672 231.665 17.856C232.145 17.04 232.769 15.744 235.409 14.352C237.569 13.2 240.065 13.392 240.065 13.392C246.353 13.392 248.081 17.328 248.081 22.992V30.144C248.081 30.144 248.033 33.504 250.385 33.504ZM262.449 30.192C262.449 32.832 262.689 34.752 264.369 35.184V36H254.529V35.184C256.353 34.656 256.449 32.64 256.449 30.192V5.904C256.449 4.224 255.969 3.504 254.049 2.784V1.968L262.449 0.191998V30.192Z" fill="#E19250"/>
</svg>
