<svg width="57" height="54" viewBox="0 0 57 54" fill="none" xmlns="http://www.w3.org/2000/svg">
<path fill-rule="evenodd" clip-rule="evenodd" d="M4 0.5C3.07174 0.5 2.1815 0.868749 1.52513 1.52513C0.868749 2.1815 0.5 3.07174 0.5 4C0.5 4.92826 0.868749 5.8185 1.52513 6.47487C2.1815 7.13125 3.07174 7.5 4 7.5V35.5C4 37.3565 4.7375 39.137 6.05025 40.4497C7.36301 41.7625 9.14348 42.5 11 42.5H20.051L15.5255 47.0255C15.1912 47.3484 14.9246 47.7346 14.7411 48.1616C14.5577 48.5886 14.4612 49.0479 14.4571 49.5126C14.4531 49.9773 14.5416 50.4382 14.7176 50.8683C14.8936 51.2985 15.1535 51.6893 15.4821 52.0179C15.8107 52.3465 16.2015 52.6064 16.6317 52.7824C17.0618 52.9584 17.5227 53.0469 17.9874 53.0429C18.4521 53.0388 18.9114 52.9423 19.3384 52.7589C19.7654 52.5754 20.1516 52.3088 20.4745 51.9745L28.5 43.949L36.5255 51.9745C37.1856 52.6121 38.0697 52.9648 38.9874 52.9569C39.9051 52.9489 40.7829 52.5808 41.4319 51.9319C42.0808 51.2829 42.4489 50.4051 42.4569 49.4874C42.4648 48.5697 42.1121 47.6856 41.4745 47.0255L36.949 42.5H46C47.8565 42.5 49.637 41.7625 50.9497 40.4497C52.2625 39.137 53 37.3565 53 35.5V7.5C53.9283 7.5 54.8185 7.13125 55.4749 6.47487C56.1313 5.8185 56.5 4.92826 56.5 4C56.5 3.07174 56.1313 2.1815 55.4749 1.52513C54.8185 0.868749 53.9283 0.5 53 0.5H4ZM44.9745 16.9745C45.6121 16.3144 45.9648 15.4303 45.9569 14.5126C45.9489 13.5949 45.5808 12.7171 44.9319 12.0681C44.2829 11.4192 43.4051 11.0511 42.4874 11.0431C41.5697 11.0352 40.6856 11.3879 40.0255 12.0255L28.5 23.551L23.9745 19.0255C23.3182 18.3694 22.4281 18.0007 21.5 18.0007C20.5719 18.0007 19.6818 18.3694 19.0255 19.0255L12.0255 26.0255C11.6912 26.3484 11.4246 26.7346 11.2411 27.1616C11.0577 27.5886 10.9612 28.0479 10.9571 28.5126C10.9531 28.9773 11.0416 29.4382 11.2176 29.8683C11.3936 30.2985 11.6535 30.6893 11.9821 31.0179C12.3107 31.3465 12.7015 31.6064 13.1317 31.7824C13.5618 31.9584 14.0227 32.0469 14.4874 32.0429C14.9521 32.0388 15.4114 31.9423 15.8384 31.7589C16.2654 31.5754 16.6516 31.3088 16.9745 30.9745L21.5 26.449L26.0255 30.9745C26.6818 31.6306 27.5719 31.9993 28.5 31.9993C29.4281 31.9993 30.3182 31.6306 30.9745 30.9745L44.9745 16.9745Z" fill="#E19250"/>
</svg>
