<svg width="26" height="26" viewBox="0 0 26 26" fill="none" xmlns="http://www.w3.org/2000/svg">
<path fill-rule="evenodd" clip-rule="evenodd" d="M25.7999 13C25.7999 16.3948 24.4514 19.6505 22.0509 22.051C19.6505 24.4514 16.3947 25.8 13 25.8C9.60518 25.8 6.34945 24.4514 3.94898 22.051C1.54852 19.6505 0.199951 16.3948 0.199951 13C0.199951 9.60524 1.54852 6.34951 3.94898 3.94905C6.34945 1.54858 9.60518 0.200012 13 0.200012C16.3947 0.200012 19.6505 1.54858 22.0509 3.94905C24.4514 6.34951 25.7999 9.60524 25.7999 13ZM13 8.20001C12.7188 8.19974 12.4426 8.27354 12.1991 8.41398C11.9555 8.55442 11.7533 8.75655 11.6128 9.00001C11.5113 9.18861 11.3729 9.35492 11.206 9.48907C11.039 9.62322 10.8468 9.72248 10.6408 9.78097C10.4347 9.83947 10.2191 9.856 10.0065 9.82959C9.79398 9.80318 9.5889 9.73437 9.40345 9.62723C9.21799 9.52009 9.05593 9.37681 8.92688 9.20588C8.79783 9.03495 8.70441 8.83985 8.65216 8.63214C8.5999 8.42444 8.58988 8.20836 8.62269 7.99671C8.6555 7.78506 8.73047 7.58215 8.84315 7.40001C9.3715 6.48499 10.187 5.76987 11.1632 5.36555C12.1394 4.96123 13.2217 4.89031 14.2423 5.16378C15.2629 5.43726 16.1647 6.03984 16.808 6.87809C17.4512 7.71634 17.7999 8.74341 17.7999 9.80001C17.8002 10.793 17.4927 11.7617 16.9196 12.5726C16.3465 13.3835 15.5361 13.9968 14.6 14.328V14.6C14.6 15.0244 14.4314 15.4313 14.1313 15.7314C13.8313 16.0314 13.4243 16.2 13 16.2C12.5756 16.2 12.1686 16.0314 11.8686 15.7314C11.5685 15.4313 11.4 15.0244 11.4 14.6V13C11.4 12.5757 11.5685 12.1687 11.8686 11.8686C12.1686 11.5686 12.5756 11.4 13 11.4C13.4243 11.4 13.8313 11.2314 14.1313 10.9314C14.4314 10.6313 14.6 10.2244 14.6 9.80001C14.6 9.37567 14.4314 8.9687 14.1313 8.66864C13.8313 8.36858 13.4243 8.20001 13 8.20001ZM13 21C13.4243 21 13.8313 20.8314 14.1313 20.5314C14.4314 20.2313 14.6 19.8244 14.6 19.4C14.6 18.9757 14.4314 18.5687 14.1313 18.2686C13.8313 17.9686 13.4243 17.8 13 17.8C12.5756 17.8 12.1686 17.9686 11.8686 18.2686C11.5685 18.5687 11.4 18.9757 11.4 19.4C11.4 19.8244 11.5685 20.2313 11.8686 20.5314C12.1686 20.8314 12.5756 21 13 21Z" fill="#9CA3AF"/>
</svg>
