<svg width="46" height="42" viewBox="0 0 46 42" fill="none" xmlns="http://www.w3.org/2000/svg">
<path fill-rule="evenodd" clip-rule="evenodd" d="M17.771 3.29706C20.066 -0.78294 25.937 -0.78294 28.229 3.29706L44.969 33.0571C47.219 37.0591 44.33 41.9971 39.743 41.9971H6.26003C1.67003 41.9971 -1.21897 37.0591 1.03103 33.0571L17.771 3.29706ZM26 33.0001C26 33.7957 25.684 34.5588 25.1214 35.1214C24.5587 35.684 23.7957 36.0001 23 36.0001C22.2044 36.0001 21.4413 35.684 20.8787 35.1214C20.3161 34.5588 20 33.7957 20 33.0001C20 32.2044 20.3161 31.4414 20.8787 30.8787C21.4413 30.3161 22.2044 30.0001 23 30.0001C23.7957 30.0001 24.5587 30.3161 25.1214 30.8787C25.684 31.4414 26 32.2044 26 33.0001ZM23 9.00006C22.2044 9.00006 21.4413 9.31613 20.8787 9.87874C20.3161 10.4414 20 11.2044 20 12.0001V21.0001C20 21.7957 20.3161 22.5588 20.8787 23.1214C21.4413 23.684 22.2044 24.0001 23 24.0001C23.7957 24.0001 24.5587 23.684 25.1214 23.1214C25.684 22.5588 26 21.7957 26 21.0001V12.0001C26 11.2044 25.684 10.4414 25.1214 9.87874C24.5587 9.31613 23.7957 9.00006 23 9.00006Z" fill="#FF8B00"/>
</svg>
