<svg width="15" height="16" viewBox="0 0 15 16" fill="none" xmlns="http://www.w3.org/2000/svg">
<path fill-rule="evenodd" clip-rule="evenodd" d="M1.5 0C1.76522 0 2.01957 0.105357 2.20711 0.292893C2.39464 0.48043 2.5 0.734784 2.5 1V3.101C3.33204 2.25227 4.36643 1.62931 5.50574 1.29078C6.64506 0.952259 7.85179 0.909318 9.01228 1.16601C10.1728 1.42269 11.2488 1.97056 12.1391 2.758C13.0294 3.54544 13.7045 4.54654 14.101 5.667C14.1491 5.79176 14.1717 5.92489 14.1674 6.05854C14.1632 6.19218 14.1322 6.32361 14.0763 6.44506C14.0203 6.56651 13.9406 6.67551 13.8418 6.76561C13.743 6.85571 13.6272 6.92508 13.5011 6.96963C13.375 7.01417 13.2413 7.03298 13.1078 7.02494C12.9744 7.0169 12.8439 6.98217 12.724 6.92282C12.6042 6.86346 12.4975 6.78068 12.4103 6.67937C12.323 6.57806 12.2569 6.46029 12.216 6.333C11.9141 5.47982 11.3865 4.72451 10.6892 4.14758C9.99191 3.57064 9.15117 3.19369 8.25656 3.05688C7.36195 2.92008 6.44698 3.02855 5.60916 3.37074C4.77133 3.71293 4.04204 4.27602 3.499 5H6.5C6.76522 5 7.01957 5.10536 7.20711 5.29289C7.39464 5.48043 7.5 5.73478 7.5 6C7.5 6.26522 7.39464 6.51957 7.20711 6.70711C7.01957 6.89464 6.76522 7 6.5 7H1.5C1.23478 7 0.98043 6.89464 0.792893 6.70711C0.605357 6.51957 0.5 6.26522 0.5 6V1C0.5 0.734784 0.605357 0.48043 0.792893 0.292893C0.98043 0.105357 1.23478 0 1.5 0ZM1.508 9.057C1.63184 9.01326 1.76308 8.99434 1.89422 9.00133C2.02537 9.00831 2.15386 9.04106 2.27235 9.09771C2.39084 9.15435 2.49701 9.23378 2.5848 9.33146C2.67259 9.42914 2.74028 9.54316 2.784 9.667C3.08586 10.5202 3.61355 11.2755 4.31082 11.8524C5.00809 12.4294 5.84883 12.8063 6.74344 12.9431C7.63805 13.0799 8.55302 12.9714 9.39084 12.6293C10.2287 12.2871 10.958 11.724 11.501 11H8.5C8.23478 11 7.98043 10.8946 7.79289 10.7071C7.60536 10.5196 7.5 10.2652 7.5 10C7.5 9.73478 7.60536 9.48043 7.79289 9.29289C7.98043 9.10536 8.23478 9 8.5 9H13.5C13.7652 9 14.0196 9.10536 14.2071 9.29289C14.3946 9.48043 14.5 9.73478 14.5 10V15C14.5 15.2652 14.3946 15.5196 14.2071 15.7071C14.0196 15.8946 13.7652 16 13.5 16C13.2348 16 12.9804 15.8946 12.7929 15.7071C12.6054 15.5196 12.5 15.2652 12.5 15V12.899C11.668 13.7477 10.6336 14.3707 9.49426 14.7092C8.35494 15.0477 7.14821 15.0907 5.98772 14.834C4.82723 14.5773 3.75117 14.0294 2.86091 13.242C1.97065 12.4546 1.29548 11.4535 0.899 10.333C0.85526 10.2092 0.836343 10.0779 0.843327 9.94678C0.850311 9.81563 0.883061 9.68714 0.939706 9.56865C0.996351 9.45016 1.07578 9.34399 1.17346 9.2562C1.27114 9.16841 1.38516 9.10072 1.509 9.057H1.508Z" fill="white"/>
</svg>
