<svg width="151" height="36" viewBox="0 0 151 36" fill="none" xmlns="http://www.w3.org/2000/svg">
<path d="M20.8586 16.904C27.1946 21.08 29.8346 26.264 26.2346 31.496C26.2346 31.496 23.9786 35.432 16.2506 35.432C6.93863 35.432 3.09863 32.456 3.09863 32.456V23.24H3.91463C4.97063 26.168 7.70663 34.616 16.2506 34.616C21.3866 34.616 22.9706 27.656 17.1146 23.384L9.72263 18.728C2.90663 14.456 0.362625 9.656 4.34663 4.424C4.34663 4.424 6.69863 0.775997 14.2826 0.775997C22.4906 0.775997 26.6186 3.08 26.6186 3.08V11.144H25.8026C24.8906 8.6 21.9626 1.592 14.2826 1.592C9.09863 1.592 7.22662 7.928 13.4666 12.008L20.8586 16.904ZM38.3888 22.664H47.7968C47.7968 16.616 45.8288 13.208 43.1888 13.208C40.3568 13.208 38.3888 18.056 38.3888 22.664ZM43.4288 12.392C50.3888 12.392 53.6528 15.992 53.6528 23.48H38.3888C38.7728 28.184 41.1728 30.632 44.3888 31.352C46.9808 31.928 50.8208 30.968 52.0208 28.712L52.8368 29.144C52.0688 31.64 49.2368 35.432 42.8047 35.432C36.5168 35.432 32.1968 29.624 32.1968 24.008C32.1968 17.24 36.8047 12.392 43.4288 12.392ZM77.2406 28.808L77.9126 29.24C77.2406 31.688 74.3606 35.432 68.3606 35.432C62.0726 35.432 57.8006 29.432 57.8006 23.816C57.8006 18.296 62.0246 12.392 70.2326 12.392C73.6406 12.392 75.7046 13.784 76.5206 14.504C77.3366 15.224 77.8166 16.568 77.4806 17.72C77.0006 19.4 75.2726 20.504 73.5446 20.024C71.8166 19.592 70.8086 17.816 71.2886 16.136C71.4806 15.224 72.0566 14.6 72.7766 14.216C73.2086 14.024 72.1526 13.208 70.2326 13.208C68.5046 13.208 63.8486 14.696 63.8486 22.952C63.8486 28.136 66.6326 30.44 69.9446 31.16C72.3446 31.688 76.1366 30.392 77.2406 28.808ZM103.305 30.584C103.305 32.888 103.737 33.08 105.753 33.32V34.136L98.6486 35.384C97.3526 35.576 97.3046 34.472 97.3046 34.472V30.248C96.1526 32.984 92.1686 35.432 89.1926 35.432C85.4006 35.432 83.1446 33.848 83.1446 28.088V17.816C83.1446 14.936 83.2406 14.504 80.4566 14.12V13.304L89.0966 12.392V27.944C89.0966 30.632 90.3446 31.928 93.1286 31.928C94.4726 31.928 96.2966 30.728 97.3046 28.808V17.96C97.3046 15.032 97.4966 14.408 95.0486 14.12V13.304L103.305 12.392V30.584ZM121.331 12.632C122.339 12.2 124.163 12.392 125.219 13.256C126.707 14.552 126.851 16.856 125.555 18.296C124.259 19.784 122.051 19.976 120.515 18.68C119.795 18.008 119.411 17.192 119.411 16.328C119.411 15.8 117.443 16.28 115.667 19.16V29.144C115.667 31.832 115.907 33.704 117.635 34.184V35H107.699V34.184C109.571 33.608 109.619 31.64 109.619 29.144V18.488C109.619 16.856 109.187 16.136 107.219 15.128V14.312L115.667 12.392V17.816C118.211 13.832 120.179 13.112 121.331 12.632ZM134.858 22.664H144.266C144.266 16.616 142.298 13.208 139.658 13.208C136.826 13.208 134.858 18.056 134.858 22.664ZM139.898 12.392C146.858 12.392 150.122 15.992 150.122 23.48H134.858C135.242 28.184 137.642 30.632 140.858 31.352C143.45 31.928 147.29 30.968 148.49 28.712L149.306 29.144C148.538 31.64 145.706 35.432 139.273 35.432C132.986 35.432 128.666 29.624 128.666 24.008C128.666 17.24 133.273 12.392 139.898 12.392Z" fill="white"/>
</svg>
