<svg width="49" height="56" viewBox="0 0 49 56" fill="none" xmlns="http://www.w3.org/2000/svg">
<path fill-rule="evenodd" clip-rule="evenodd" d="M7 24.5V17.5C7 12.8587 8.84374 8.40752 12.1256 5.12563C15.4075 1.84374 19.8587 0 24.5 0C29.1413 0 33.5925 1.84374 36.8744 5.12563C40.1563 8.40752 42 12.8587 42 17.5V24.5C43.8565 24.5 45.637 25.2375 46.9497 26.5503C48.2625 27.863 49 29.6435 49 31.5V49C49 50.8565 48.2625 52.637 46.9497 53.9497C45.637 55.2625 43.8565 56 42 56H7C5.14348 56 3.36301 55.2625 2.05025 53.9497C0.737498 52.637 0 50.8565 0 49V31.5C0 29.6435 0.737498 27.863 2.05025 26.5503C3.36301 25.2375 5.14348 24.5 7 24.5ZM35 17.5V24.5H14V17.5C14 14.7152 15.1062 12.0445 17.0754 10.0754C19.0445 8.10625 21.7152 7 24.5 7C27.2848 7 29.9555 8.10625 31.9246 10.0754C33.8938 12.0445 35 14.7152 35 17.5Z" fill="white"/>
</svg>
