<svg width="16" height="17" viewBox="0 0 16 17" fill="none" xmlns="http://www.w3.org/2000/svg">
<path d="M13.0001 6.16651C13.6092 6.16653 14.2039 5.98111 14.7051 5.63491C15.2064 5.2887 15.5903 4.79813 15.8059 4.22841C16.0215 3.6587 16.0586 3.03684 15.9122 2.44554C15.7658 1.85424 15.4429 1.32151 14.9864 0.918205C14.5299 0.514898 13.9614 0.26012 13.3565 0.187752C12.7517 0.115384 12.1392 0.228857 11.6004 0.513079C11.0616 0.797302 10.6221 1.23881 10.3404 1.77888C10.0586 2.31895 9.94792 2.932 10.0231 3.53651L5.08305 6.00651C4.65928 5.59786 4.12465 5.32292 3.54574 5.21595C2.96684 5.10898 2.36926 5.17469 1.82744 5.40491C1.28561 5.63513 0.823499 6.01967 0.498659 6.51064C0.173819 7.00161 0.000610352 7.5773 0.000610352 8.16601C0.000610352 8.75471 0.173819 9.3304 0.498659 9.82137C0.823499 10.3123 1.28561 10.6969 1.82744 10.9271C2.36926 11.1573 2.96684 11.223 3.54574 11.1161C4.12465 11.0091 4.65928 10.7342 5.08305 10.3255L10.0231 12.7955C9.93555 13.4977 10.0991 14.2083 10.4848 14.8016C10.8706 15.3949 11.4536 15.8328 12.1309 16.0378C12.8082 16.2428 13.5362 16.2018 14.1862 15.922C14.8362 15.6422 15.3664 15.1416 15.683 14.5087C15.9996 13.8758 16.0823 13.1514 15.9165 12.4634C15.7506 11.7754 15.3469 11.1683 14.7767 10.7491C14.2065 10.33 13.5065 10.126 12.8004 10.1731C12.0943 10.2202 11.4276 10.5154 10.9181 11.0065L5.97805 8.53651C6.00832 8.29077 6.00832 8.04224 5.97805 7.79651L10.9181 5.32651C11.4561 5.84651 12.1901 6.16651 13.0001 6.16651Z" fill="#921A64"/>
</svg>
