<svg width="63" height="50" viewBox="0 0 63 50" fill="none" xmlns="http://www.w3.org/2000/svg">
<path d="M28 11C28 13.7848 26.8938 16.4555 24.9246 18.4246C22.9555 20.3938 20.2848 21.5 17.5 21.5C14.7152 21.5 12.0445 20.3938 10.0754 18.4246C8.10625 16.4555 7 13.7848 7 11C7 8.21523 8.10625 5.54451 10.0754 3.57538C12.0445 1.60625 14.7152 0.5 17.5 0.5C20.2848 0.5 22.9555 1.60625 24.9246 3.57538C26.8938 5.54451 28 8.21523 28 11ZM56 11C56 12.3789 55.7284 13.7443 55.2007 15.0182C54.6731 16.2921 53.8996 17.4496 52.9246 18.4246C51.9496 19.3996 50.7921 20.1731 49.5182 20.7007C48.2443 21.2284 46.8789 21.5 45.5 21.5C44.1211 21.5 42.7557 21.2284 41.4818 20.7007C40.2079 20.1731 39.0504 19.3996 38.0754 18.4246C37.1004 17.4496 36.3269 16.2921 35.7993 15.0182C35.2716 13.7443 35 12.3789 35 11C35 8.21523 36.1062 5.54451 38.0754 3.57538C40.0445 1.60625 42.7152 0.5 45.5 0.5C48.2848 0.5 50.9555 1.60625 52.9246 3.57538C54.8938 5.54451 56 8.21523 56 11ZM41.755 49.5C41.916 48.3555 42 47.19 42 46C42.0081 40.501 40.1581 35.1606 36.75 30.845C39.4103 29.3091 42.428 28.5005 45.4999 28.5004C48.5717 28.5004 51.5895 29.309 54.2498 30.8449C56.9101 32.3808 59.1193 34.5899 60.6553 37.2502C62.1913 39.9104 62.9999 42.9281 63 46V49.5H41.755ZM17.5 28.5C22.1413 28.5 26.5925 30.3437 29.8744 33.6256C33.1563 36.9075 35 41.3587 35 46V49.5H0V46C0 41.3587 1.84374 36.9075 5.12563 33.6256C8.40752 30.3437 12.8587 28.5 17.5 28.5Z" fill="#9152A3"/>
</svg>
