<svg width="132" height="37" viewBox="0 0 132 37" fill="none" xmlns="http://www.w3.org/2000/svg">
<path d="M20.5618 17.904C26.8978 22.08 29.5378 27.264 25.9377 32.496C25.9377 32.496 23.6818 36.432 15.9538 36.432C6.64175 36.432 2.80175 33.456 2.80175 33.456V24.24H3.61775C4.67375 27.168 7.40975 35.616 15.9538 35.616C21.0898 35.616 22.6738 28.656 16.8178 24.384L9.42575 19.728C2.60975 15.456 0.06575 10.656 4.04975 5.424C4.04975 5.424 6.40175 1.776 13.9858 1.776C22.1938 1.776 26.3218 4.08 26.3218 4.08V12.144H25.5058C24.5938 9.6 21.6658 2.592 13.9858 2.592C8.80175 2.592 6.92975 8.928 13.1698 13.008L20.5618 17.904ZM43.5639 13.392C50.9079 13.392 54.9879 18.576 54.9879 24.912C54.9879 31.2 50.9079 36.432 43.5639 36.432C36.2679 36.432 32.1399 31.2 32.1399 24.912C32.1399 18.576 36.2679 13.392 43.5639 13.392ZM43.5639 35.616C47.0199 35.616 47.8839 33.6 47.8839 24.912C47.8839 16.224 47.0199 14.208 43.5639 14.208C40.1079 14.208 39.1959 16.224 39.1959 24.912C39.1959 33.6 40.1079 35.616 43.5639 35.616ZM78.4438 29.808L79.1158 30.24C78.4438 32.688 75.5638 36.432 69.5638 36.432C63.2758 36.432 59.0038 30.432 59.0038 24.816C59.0038 19.296 63.2278 13.392 71.4358 13.392C74.8438 13.392 76.9078 14.784 77.7238 15.504C78.5398 16.224 79.0198 17.568 78.6838 18.72C78.2038 20.4 76.4758 21.504 74.7478 21.024C73.0198 20.592 72.0118 18.816 72.4918 17.136C72.6838 16.224 73.2598 15.6 73.9798 15.216C74.4118 15.024 73.3558 14.208 71.4358 14.208C69.7078 14.208 65.0518 15.696 65.0518 23.952C65.0518 29.136 67.8358 31.44 71.1478 32.16C73.5478 32.688 77.3398 31.392 78.4438 29.808ZM90.4438 6.288C90.4438 8.112 88.9558 9.552 87.1318 9.552C85.3078 9.552 83.8678 8.112 83.8678 6.288C83.8678 4.464 85.3078 3.024 87.1318 3.024C88.9558 3.024 90.4438 4.464 90.4438 6.288ZM90.5878 30.144C90.5878 32.832 90.8278 34.704 92.5558 35.184V36H82.7158V35.184C84.5398 34.608 84.6358 32.592 84.6358 30.144V19.488C84.6358 17.856 84.1558 17.184 82.1878 16.128V15.312L90.5878 13.392V30.144ZM108.791 31.056C108.791 30.96 108.791 24.576 108.791 24.576C104.087 25.632 102.503 27.888 102.503 30.336C102.503 30.336 102.503 33.504 105.623 33.504C107.255 33.504 108.359 32.208 108.791 31.056ZM117.143 33.504C117.143 33.504 118.151 33.504 118.439 32.688L119.255 33.024C118.871 34.56 116.663 36.432 113.639 36.432C113.639 36.432 109.367 36.432 108.839 32.544C108.119 34.656 105.287 36.432 101.879 36.432C101.879 36.432 96.3586 36.432 96.3586 31.536C96.3586 26.304 100.391 25.824 108.791 23.712V20.736C108.791 15.744 106.007 13.248 102.695 14.976C101.159 15.744 100.967 16.56 101.303 16.608C102.023 16.704 102.647 17.04 103.079 17.664C103.943 18.912 103.607 20.592 102.359 21.456C101.111 22.272 99.4306 21.984 98.5666 20.736C97.9906 19.824 97.9426 18.672 98.4226 17.856C98.9026 17.04 99.5266 15.744 102.167 14.352C104.327 13.2 106.823 13.392 106.823 13.392C113.111 13.392 114.839 17.328 114.839 22.992V30.144C114.839 30.144 114.791 33.504 117.143 33.504ZM129.207 30.192C129.207 32.832 129.447 34.752 131.127 35.184V36H121.287V35.184C123.111 34.656 123.207 32.64 123.207 30.192V5.904C123.207 4.224 122.727 3.504 120.807 2.784V1.968L129.207 0.191998V30.192Z" fill="#9152A3"/>
</svg>
