<svg width="15" height="11" viewBox="0 0 15 11" fill="none" xmlns="http://www.w3.org/2000/svg">
<path fill-rule="evenodd" clip-rule="evenodd" d="M14.2355 1.27543C14.4232 1.4631 14.5286 1.7176 14.5286 1.98296C14.5286 2.24833 14.4232 2.50283 14.2355 2.69049L6.22952 10.6965C6.04185 10.8841 5.78735 10.9895 5.52199 10.9895C5.25662 10.9895 5.00212 10.8841 4.81446 10.6965L0.811441 6.69351C0.629146 6.50476 0.528275 6.25197 0.530555 5.98958C0.532836 5.72718 0.638084 5.47618 0.823632 5.29063C1.00918 5.10509 1.26018 4.99984 1.52258 4.99756C1.78497 4.99528 2.03776 5.09615 2.22651 5.27844L5.52199 8.57392L12.8205 1.27543C13.0082 1.08782 13.2627 0.982422 13.528 0.982422C13.7934 0.982422 14.0479 1.08782 14.2355 1.27543Z" fill="white"/>
</svg>
