<svg width="80" height="65" viewBox="0 0 80 65" fill="none" xmlns="http://www.w3.org/2000/svg">
<path d="M71.7188 16.25C71.8229 16.6667 71.875 17.3438 71.875 18.2812C71.875 25.7812 70.0521 33.0208 66.4062 40C62.6562 47.3958 57.3958 53.2812 50.625 57.6562C43.2292 62.5521 34.7396 65 25.1562 65C15.9896 65 7.60417 62.5521 0 57.6562C1.14583 57.7604 2.44792 57.8125 3.90625 57.8125C11.5104 57.8125 18.3333 55.4688 24.375 50.7812C20.7292 50.7812 17.5 49.7396 14.6875 47.6562C11.9792 45.4688 10.1042 42.7604 9.0625 39.5312C10.1042 39.6354 11.0938 39.6875 12.0312 39.6875C13.4896 39.6875 14.9479 39.5312 16.4062 39.2188C12.6562 38.3854 9.53125 36.4583 7.03125 33.4375C4.53125 30.4167 3.28125 26.9792 3.28125 23.125V22.8125C5.57292 24.1667 8.02083 24.8958 10.625 25C8.4375 23.4375 6.66667 21.4583 5.3125 19.0625C3.95833 16.6667 3.28125 14.0625 3.28125 11.25C3.28125 8.33333 4.0625 5.57292 5.625 2.96875C9.6875 8.07292 14.6354 12.1354 20.4688 15.1562C26.4062 18.1771 32.7083 19.8438 39.375 20.1562C39.1667 18.9062 39.0625 17.6562 39.0625 16.4062C39.0625 13.4896 39.7917 10.7812 41.25 8.28125C42.7083 5.67708 44.6875 3.64583 47.1875 2.1875C49.6875 0.729167 52.3958 0 55.3125 0C57.7083 0 59.8958 0.46875 61.875 1.40625C63.9583 2.34375 65.7812 3.59375 67.3438 5.15625C71.0938 4.42708 74.5833 3.125 77.8125 1.25C76.5625 5.10417 74.1667 8.125 70.625 10.3125C73.75 9.89583 76.875 9.01042 80 7.65625C77.7083 10.9896 74.9479 13.8542 71.7188 16.25Z" fill="#8F8F8F"/>
</svg>
