<svg width="57" height="51" viewBox="0 0 57 51" fill="none" xmlns="http://www.w3.org/2000/svg">
<path d="M26.8154 17.5921C23.1109 19.0971 21.2008 19.155 18.1475 17.1725" stroke="#52ABAA" stroke-width="2.35768" stroke-miterlimit="10" stroke-linecap="round" stroke-linejoin="round"/>
<path d="M25.556 44.667C22.5606 41.686 6.88878 26.7233 6.88878 26.7233C0.868957 20.7034 -0.722824 12.5275 5.297 6.50764C11.3168 0.487814 21.099 0.502285 27.1189 6.52211C27.2057 6.60894 27.3215 6.7247 27.4083 6.81153C27.5819 6.98518 27.7556 7.15882 27.9148 7.318C28.0161 7.4193 28.1174 7.52059 28.2187 7.62189C32.5309 11.9342 34.6437 14.0469 38.6376 18.0408C39.2309 18.6341 39.0862 19.5747 38.435 20.1101C35.5698 22.4689 32.0968 21.644 26.815 17.5922" stroke="#52ABAA" stroke-width="2.35768" stroke-miterlimit="10" stroke-linecap="round" stroke-linejoin="round"/>
<path d="M28.2188 7.62189C28.32 7.52059 28.4213 7.4193 28.5226 7.318C28.6963 7.14435 28.8699 6.97071 29.0436 6.81153C29.1304 6.7247 29.2462 6.60894 29.333 6.52211C35.3528 0.502285 45.1206 0.487814 51.1404 6.50764C57.1602 12.5275 55.5829 20.7034 49.5631 26.7233C49.5631 26.7233 47.4648 28.8071 45.6126 30.6593" stroke="#52ABAA" stroke-width="2.35768" stroke-miterlimit="10" stroke-linecap="round" stroke-linejoin="round"/>
<path d="M42.5303 27.5915C41.0687 25.8695 38.6377 25.8695 37.4221 27.8086C36.5683 29.1399 37.1761 30.7172 38.2904 31.8459" stroke="#52ABAA" stroke-width="2.35768" stroke-miterlimit="10" stroke-linecap="round" stroke-linejoin="round"/>
<path d="M38.2754 31.8604C36.8139 30.1384 34.3828 30.1384 33.1672 32.0775C32.3135 33.4088 32.9212 34.9861 34.0355 36.1148" stroke="#52ABAA" stroke-width="2.35768" stroke-miterlimit="10" stroke-linecap="round" stroke-linejoin="round"/>
<path d="M34.021 36.1148C32.5595 34.3928 30.1284 34.3928 28.9128 36.3319C28.0591 37.6632 28.6668 39.2405 29.7811 40.3692" stroke="#52ABAA" stroke-width="2.35768" stroke-miterlimit="10" stroke-linecap="round" stroke-linejoin="round"/>
<path d="M29.7525 40.3692C28.2909 38.6472 25.8598 38.6472 24.6443 40.5863C23.7905 41.9176 24.3983 43.4949 25.5125 44.6236" stroke="#52ABAA" stroke-width="2.35768" stroke-miterlimit="10" stroke-linecap="round" stroke-linejoin="round"/>
<path d="M38.29 31.8604L41.5604 35.1163C43.022 36.8384 45.0913 36.4766 46.3068 34.5375C47.1606 33.2062 46.9146 31.9762 45.8004 30.8619L42.53 27.606" stroke="#52ABAA" stroke-width="2.35768" stroke-miterlimit="10" stroke-linecap="round" stroke-linejoin="round"/>
<path d="M34.0356 36.1149L37.306 39.3708C38.7676 41.0928 40.8369 40.731 42.0524 38.792C42.9062 37.4607 42.6602 36.2306 41.546 35.1164" stroke="#52ABAA" stroke-width="2.35768" stroke-miterlimit="10" stroke-linecap="round" stroke-linejoin="round"/>
<path d="M29.7812 40.3692L33.0516 43.6251C34.5132 45.3471 36.5825 44.9854 37.798 43.0463C38.6518 41.715 38.4058 40.485 37.2916 39.3707" stroke="#52ABAA" stroke-width="2.35768" stroke-miterlimit="10" stroke-linecap="round" stroke-linejoin="round"/>
<path d="M25.5127 44.6381L28.7831 47.894C30.2446 49.616 32.3139 49.2542 33.5295 47.3152C34.3833 45.9838 34.1373 44.7538 33.023 43.6396" stroke="#52ABAA" stroke-width="2.35768" stroke-miterlimit="10" stroke-linecap="round" stroke-linejoin="round"/>
<path d="M26.8148 17.5922L17.9153 26.4773C16.8879 27.5192 16.3236 28.9952 17.1194 30.2252C18.2482 32.034 20.5056 32.034 21.8658 30.4278L31.5902 20.7324" stroke="#52ABAA" stroke-width="2.35768" stroke-miterlimit="10" stroke-linecap="round"/>
<path d="M35.5262 24.6973L25.8019 34.3927C24.4416 35.999 22.1842 35.999 21.0555 34.1901C20.2596 32.9456 20.8239 31.4841 21.8514 30.4422" stroke="#52ABAA" stroke-width="2.35768" stroke-miterlimit="10" stroke-linecap="round"/>
<path d="M25.8167 34.3928C24.7893 35.4347 24.2249 36.9107 25.0208 38.1407C25.2234 38.4736 25.4694 38.734 25.7443 38.9511C25.7733 38.9656 25.8022 38.9945 25.8312 39.009C26.0193 39.1248 26.1351 39.1826 26.3521 39.2405" stroke="#52ABAA" stroke-width="2.35768" stroke-miterlimit="10" stroke-linecap="round" stroke-linejoin="round"/>
</svg>
