<svg width="212" height="37" viewBox="0 0 212 37" fill="none" xmlns="http://www.w3.org/2000/svg">
<path d="M22.2408 2.208H35.8248V3.024C33.6168 3.024 31.4088 3.024 26.5608 14.496L17.9208 36H17.1048C5.34481 7.728 4.81681 6.912 4.81681 6.912C3.23281 3.072 1.50481 3.024 0.256813 3.024V2.208H15.5208V3.024C11.5848 3.024 13.4088 8.592 13.4088 8.592L20.7528 26.88L25.7928 14.256C25.7928 14.256 30.1608 3.024 22.2408 3.024V2.208ZM44.8998 13.392C52.2438 13.392 56.3238 18.576 56.3238 24.912C56.3238 31.2 52.2438 36.432 44.8998 36.432C37.6038 36.432 33.4758 31.2 33.4758 24.912C33.4758 18.576 37.6038 13.392 44.8998 13.392ZM44.8998 35.616C48.3558 35.616 49.2198 33.6 49.2198 24.912C49.2198 16.224 48.3558 14.208 44.8998 14.208C41.4438 14.208 40.5318 16.224 40.5318 24.912C40.5318 33.6 41.4438 35.616 44.8998 35.616ZM67.6837 30.192C67.6837 32.832 67.9237 34.752 69.6037 35.184V36H59.7637V35.184C61.5877 34.656 61.6837 32.64 61.6837 30.192V5.904C61.6837 4.224 61.2037 3.504 59.2837 2.784V1.968L67.6837 0.191998V30.192ZM94.5468 31.584C94.5468 33.888 94.9788 34.08 96.9948 34.32V35.136L89.8908 36.384C88.5948 36.576 88.5468 35.472 88.5468 35.472V31.248C87.3948 33.984 83.4108 36.432 80.4348 36.432C76.6428 36.432 74.3868 34.848 74.3868 29.088V18.816C74.3868 15.936 74.4828 15.504 71.6988 15.12V14.304L80.3388 13.392V28.944C80.3388 31.632 81.5868 32.928 84.3708 32.928C85.7148 32.928 87.5388 31.728 88.5468 29.808V18.96C88.5468 16.032 88.7388 15.408 86.2908 15.12V14.304L94.5468 13.392V31.584ZM120.637 30.144C120.637 32.784 120.877 34.752 122.605 35.184V36H112.717V35.184C114.541 34.656 114.637 32.592 114.637 30.144V20.832C114.637 18.528 113.149 16.848 110.749 16.848C108.877 16.848 106.669 18.864 106.669 20.784V30.24C106.669 32.88 106.957 34.704 108.637 35.184V36H98.7971V35.184C100.621 34.656 100.669 32.688 100.669 30.24V19.392C100.669 17.712 100.237 17.184 98.2691 16.128V15.312L106.669 13.392V18.528C107.773 15.6 111.565 13.392 114.589 13.392C118.333 13.392 120.637 14.88 120.637 20.688V30.144ZM136.576 33.024C137.968 33.024 139.024 32.064 139.456 31.344L140.176 31.776C139.216 34.032 136.288 36.432 133.072 36.432C129.28 36.432 127.024 34.896 127.024 29.088V14.64H124.624L124.48 13.824H127.024V7.392L133.024 6.384V13.824H138.736L138.544 14.64H133.024V28.944C133.024 31.632 134.176 33.024 136.576 33.024ZM148.553 23.664H157.961C157.961 17.616 155.993 14.208 153.353 14.208C150.521 14.208 148.553 19.056 148.553 23.664ZM153.593 13.392C160.553 13.392 163.817 16.992 163.817 24.48H148.553C148.937 29.184 151.337 31.632 154.553 32.352C157.145 32.928 160.985 31.968 162.185 29.712L163.001 30.144C162.233 32.64 159.401 36.432 152.969 36.432C146.681 36.432 142.361 30.624 142.361 25.008C142.361 18.24 146.969 13.392 153.593 13.392ZM173.725 23.664H183.133C183.133 17.616 181.165 14.208 178.525 14.208C175.693 14.208 173.725 19.056 173.725 23.664ZM178.765 13.392C185.725 13.392 188.989 16.992 188.989 24.48H173.725C174.109 29.184 176.509 31.632 179.725 32.352C182.317 32.928 186.157 31.968 187.357 29.712L188.173 30.144C187.405 32.64 184.573 36.432 178.141 36.432C171.853 36.432 167.533 30.624 167.533 25.008C167.533 18.24 172.141 13.392 178.765 13.392ZM205.761 13.632C206.769 13.2 208.593 13.392 209.649 14.256C211.137 15.552 211.281 17.856 209.985 19.296C208.689 20.784 206.481 20.976 204.945 19.68C204.225 19.008 203.841 18.192 203.841 17.328C203.841 16.8 201.873 17.28 200.097 20.16V30.144C200.097 32.832 200.337 34.704 202.065 35.184V36H192.129V35.184C194.001 34.608 194.049 32.64 194.049 30.144V19.488C194.049 17.856 193.617 17.136 191.649 16.128V15.312L200.097 13.392V18.816C202.641 14.832 204.609 14.112 205.761 13.632Z" fill="#52ABAA"/>
</svg>
