<svg width="46" height="42" viewBox="0 0 46 42" fill="none" xmlns="http://www.w3.org/2000/svg">
<path fill-rule="evenodd" clip-rule="evenodd" d="M17.7705 3.2973C20.0655 -0.782696 25.9365 -0.782696 28.2285 3.2973L44.9685 33.0573C47.2185 37.0593 44.3295 41.9973 39.7425 41.9973H6.25955C1.66955 41.9973 -1.21946 37.0593 1.03054 33.0573L17.7705 3.2973ZM25.9995 33.0003C25.9995 33.796 25.6835 34.559 25.1209 35.1216C24.5583 35.6842 23.7952 36.0003 22.9995 36.0003C22.2039 36.0003 21.4408 35.6842 20.8782 35.1216C20.3156 34.559 19.9995 33.796 19.9995 33.0003C19.9995 32.2047 20.3156 31.4416 20.8782 30.879C21.4408 30.3164 22.2039 30.0003 22.9995 30.0003C23.7952 30.0003 24.5583 30.3164 25.1209 30.879C25.6835 31.4416 25.9995 32.2047 25.9995 33.0003ZM22.9995 9.00031C22.2039 9.00031 21.4408 9.31638 20.8782 9.87899C20.3156 10.4416 19.9995 11.2047 19.9995 12.0003V21.0003C19.9995 21.796 20.3156 22.559 20.8782 23.1216C21.4408 23.6842 22.2039 24.0003 22.9995 24.0003C23.7952 24.0003 24.5583 23.6842 25.1209 23.1216C25.6835 22.559 25.9995 21.796 25.9995 21.0003V12.0003C25.9995 11.2047 25.6835 10.4416 25.1209 9.87899C24.5583 9.31638 23.7952 9.00031 22.9995 9.00031Z" fill="#FF8B00"/>
</svg>
