<svg width="11" height="10" viewBox="0 0 11 10" fill="none" xmlns="http://www.w3.org/2000/svg">
<path fill-rule="evenodd" clip-rule="evenodd" d="M0.743744 0.254407C0.89986 0.0981811 1.11157 0.0104182 1.33232 0.0104182C1.55307 0.0104182 1.76478 0.0981811 1.92089 0.254407L5.4948 3.83191L9.0687 0.254407C9.1455 0.174815 9.23736 0.11133 9.33892 0.0676557C9.44049 0.0239815 9.54973 0.000992978 9.66027 3.14642e-05C9.77081 -0.000930049 9.88043 0.0201545 9.98274 0.0620553C10.0851 0.103956 10.178 0.165834 10.2562 0.244078C10.3343 0.322321 10.3961 0.415365 10.438 0.517778C10.4799 0.620192 10.5009 0.729925 10.5 0.840575C10.499 0.951224 10.476 1.06057 10.4324 1.16224C10.3888 1.26391 10.3254 1.35587 10.2458 1.43274L6.67194 5.01024L10.2458 8.58774C10.3975 8.74491 10.4814 8.95541 10.4795 9.17391C10.4776 9.3924 10.3901 9.60142 10.2357 9.75592C10.0814 9.91043 9.87256 9.99807 9.65428 9.99997C9.436 10.0019 9.22571 9.91787 9.0687 9.76607L5.4948 6.18857L1.92089 9.76607C1.76388 9.91787 1.55359 10.0019 1.33531 9.99997C1.11704 9.99807 0.908236 9.91043 0.753884 9.75592C0.599533 9.60142 0.51198 9.3924 0.510083 9.17391C0.508187 8.95541 0.592098 8.74491 0.743744 8.58774L4.31765 5.01024L0.743744 1.43274C0.587675 1.27647 0.5 1.06454 0.5 0.843574C0.5 0.622603 0.587675 0.41068 0.743744 0.254407Z" fill="#921A64"/>
</svg>
